<?xml version="1.0" encoding="utf-8"?>
<!-- Generator: Adobe Illustrator 17.0.0, SVG Export Plug-In . SVG Version: 6.00 Build 0)  -->
<!DOCTYPE svg PUBLIC "-//W3C//DTD SVG 1.1//EN" "http://www.w3.org/Graphics/SVG/1.1/DTD/svg11.dtd">
<svg version="1.1" id="Capa_1" xmlns="http://www.w3.org/2000/svg" xmlns:xlink="http://www.w3.org/1999/xlink" x="0px" y="0px"
	 width="174.681px" height="170.605px" viewBox="0 0 174.681 170.605" enable-background="new 0 0 174.681 170.605"
	 xml:space="preserve">
<g>
	<path fill="#FFFFFF" d="M28.092,55.009h70.126c1.275,0,2.303-1.028,2.303-2.312c0-1.271-1.028-2.299-2.303-2.299H28.092
		c-1.275,0-2.308,1.028-2.308,2.299C25.785,53.981,26.817,55.009,28.092,55.009"/>
	<path fill="#FFFFFF" d="M173.397,26.533L152.841,9.508c-1.497-1.246-3.719-1.036-4.968,0.46l-22.48,27.141v-8.227
		c0-1.587-0.635-3.101-1.761-4.218L100.717,2.091c-1.1-1.087-2.593-1.698-4.154-1.698H5.911C2.644,0.394,0,3.034,0,6.305v157.988
		c0,3.271,2.644,5.92,5.911,5.92h113.558c3.271,0,5.924-2.649,5.924-5.92V90.027L173.87,31.51
		C175.112,30.009,174.907,27.782,173.397,26.533 M113.554,158.378H11.822V12.229h78.591v19.285c0,1.958,1.59,3.548,3.544,3.548
		h19.597v16.33L96.115,72.452H28.092c-1.275,0-2.308,1.024-2.308,2.299c0,1.28,1.032,2.312,2.308,2.312h64.206L78.643,93.537h-50.55
		c-1.275,0-2.308,1.032-2.308,2.303c0,1.28,1.032,2.311,2.308,2.311h46.733l-4.218,5.092c-0.311,0.362-0.533,0.789-0.674,1.246
		l-3.156,10.577H28.092c-1.275,0-2.308,1.032-2.308,2.303c0,1.28,1.032,2.316,2.308,2.316h37.312l-5.207,17.43H28.092
		c-1.275,0-2.308,1.036-2.308,2.312c0,1.275,1.032,2.303,2.308,2.303h33.372c0.341,0,0.661-0.077,0.947-0.213
		c0.9,0.311,1.898,0.273,2.776-0.183l30.314-15.664c0.418-0.222,0.789-0.524,1.096-0.891l16.957-20.463V158.378z M91.633,119.684
		l-0.021,0.03l-11.801,6.099l-7.101-5.889l0.072-0.239l1.373-4.619l2.346-7.864l74.565-89.995l6.585,5.463l-0.043,0.047
		l-70.881,85.543c-0.823,1.002-0.691,2.491,0.311,3.322c1.007,0.823,2.495,0.687,3.318-0.316l70.876-85.547l0.034-0.055l4.9,4.06
		L91.633,119.684z"/>
</g>
</svg>
