<?xml version="1.0" encoding="utf-8"?>
<!-- Generator: Adobe Illustrator 17.0.0, SVG Export Plug-In . SVG Version: 6.00 Build 0)  -->
<!DOCTYPE svg PUBLIC "-//W3C//DTD SVG 1.1//EN" "http://www.w3.org/Graphics/SVG/1.1/DTD/svg11.dtd">
<svg version="1.1" id="Capa_1" xmlns="http://www.w3.org/2000/svg" xmlns:xlink="http://www.w3.org/1999/xlink" x="0px" y="0px"
	 width="174.685px" height="66.812px" viewBox="0 0 174.685 66.812" enable-background="new 0 0 174.685 66.812"
	 xml:space="preserve">
<g>
	<path fill="#FFFFFF" d="M159.494,0h-51.629c-8.376,0-15.199,6.815-15.199,15.191v0.811h12.197v-0.811
		c0-1.659,1.343-3.002,3.002-3.002h51.629c1.646,0,3.002,1.343,3.002,3.002v36.434c0,1.65-1.356,2.994-3.002,2.994h-51.629
		c-1.659,0-3.002-1.343-3.002-2.994v-0.819H92.665v0.819c0,8.372,6.824,15.187,15.199,15.187h51.629
		c8.376,0,15.191-6.815,15.191-15.187V15.191C174.685,6.815,167.87,0,159.494,0"/>
	<path fill="#FFFFFF" d="M69.823,51.625c0,1.65-1.343,2.998-2.998,2.998H15.2c-1.659,0-3.007-1.348-3.007-2.998V15.187
		c0-1.655,1.348-2.998,3.007-2.998h51.625c1.655,0,2.998,1.343,2.998,2.998v0.819H82.02v-0.819C82.02,6.815,75.205,0,66.825,0H15.2
		C6.819,0,0,6.815,0,15.187v36.438c0,8.376,6.819,15.187,15.2,15.187h51.625c8.38,0,15.195-6.81,15.195-15.187v-0.819H69.823V51.625
		z"/>
	<path fill="#FFFFFF" d="M45.625,29.389v8.031c0,3.356,2.716,6.069,6.073,6.069h71.913c3.348,0,6.065-2.712,6.065-6.069v-8.031
		c0-3.357-2.717-6.069-6.065-6.069H51.698C48.341,23.32,45.625,26.032,45.625,29.389"/>
</g>
</svg>
