<?xml version="1.0" encoding="utf-8"?>
<!-- Generator: Adobe Illustrator 17.0.0, SVG Export Plug-In . SVG Version: 6.00 Build 0)  -->
<!DOCTYPE svg PUBLIC "-//W3C//DTD SVG 1.1//EN" "http://www.w3.org/Graphics/SVG/1.1/DTD/svg11.dtd">
<svg version="1.1" id="Capa_1" xmlns="http://www.w3.org/2000/svg" xmlns:xlink="http://www.w3.org/1999/xlink" x="0px" y="0px"
	 width="174.684px" height="170.605px" viewBox="0 0 174.684 170.605" enable-background="new 0 0 174.684 170.605"
	 xml:space="preserve">
<g>
	<path fill="#FFFFFF" d="M167.038,50.582c-0.2-2.678-2.491-4.699-5.203-4.499l-8.918,0.652V30.111c0-2.682-2.188-4.858-4.875-4.858
		h-12.065l0.972-11.63c0.231-2.678-1.766-5.032-4.44-5.258l-99.727-8.35c-1.284-0.098-2.555,0.303-3.553,1.13
		c-0.976,0.836-1.595,2.022-1.698,3.305l-1.748,20.803H4.866C2.179,25.253,0,27.429,0,30.111v110.458
		c0,2.687,2.179,4.866,4.866,4.866h17.613h4.977l0.034,0.414l1.471,20.249c0.085,1.288,0.695,2.478,1.667,3.326
		c0.891,0.763,2.017,1.181,3.181,1.181c0.115,0,0.235-0.004,0.35-0.013l136.012-9.894c1.283-0.098,2.491-0.695,3.326-1.668
		c0.849-0.981,1.262-2.252,1.173-3.535L167.038,50.582z M36.817,10.11l90.03,7.544l-0.636,7.6h-90.66L36.817,10.11z M9.728,34.977
		h133.458v100.734H9.728V34.977z M38.306,160.54l-1.011-13.865l-0.09-1.241h110.837c2.687,0,4.875-2.18,4.875-4.866V56.484
		l4.772-0.345l6.926,95.215L38.306,160.54z"/>
	<path fill="#FFFFFF" d="M74.006,78.819c-0.542,0-0.853,0-20.756,8.777l2.67-21.955c0.103-0.84-0.307-1.616-1.002-2.026
		c-0.239-0.149-0.508-0.256-0.811-0.29c-1.096-0.132-2.209-0.2-3.305-0.2c-2.964,0-5.817,0.512-8.512,1.408
		c-3.984,1.331-7.562,3.557-10.496,6.474c-0.03,0.03-0.055,0.068-0.081,0.098c-1.702,1.698-3.173,3.612-4.371,5.719
		c-1.719,3.033-2.904,6.423-3.348,10.078c-0.84,6.939,1.058,13.571,4.811,18.867c0.238,0.337,0.46,0.687,0.712,1.015
		c1.51,1.923,3.271,3.638,5.246,5.105c3.647,2.7,7.992,4.538,12.803,5.122c1.1,0.136,2.205,0.204,3.301,0.204
		c13.63,0,25.158-10.223,26.813-23.772c0.546-4.508-0.06-9.114-1.74-13.328C75.614,79.335,74.846,78.819,74.006,78.819"/>
	<path fill="#FFFFFF" d="M80.489,61.751c-1.232-1.727-2.691-3.271-4.35-4.559c-2.742-2.128-5.992-3.565-9.489-4.184
		c-0.359-0.064-0.708-0.166-1.07-0.209c-0.384-0.047-0.729,0.107-0.981,0.359c-0.183,0.179-0.32,0.405-0.354,0.678l-0.52,4.261
		l-0.61,4.917l-1.382,11.08c-0.047,0.422,0.128,0.84,0.473,1.101c0.205,0.158,0.456,0.239,0.712,0.239
		c0.158,0,0.32-0.03,0.461-0.098l18.807-7.949c0.286-0.12,0.516-0.354,0.631-0.649c0.12-0.298,0.111-0.631-0.004-0.921
		C82.186,64.361,81.393,63.014,80.489,61.751"/>
	<path fill="#FFFFFF" d="M125.145,113.577c2.017,0,3.647-1.633,3.647-3.646c0-2.017-1.629-3.651-3.647-3.651h-5.723H97.996
		c-2.013,0-3.647,1.634-3.647,3.651c0,2.013,1.634,3.646,3.647,3.646h20.816H125.145z"/>
	<path fill="#FFFFFF" d="M97.996,92.441h22.595h4.555c2.017,0,3.642-1.633,3.642-3.647c0-2.017-1.625-3.646-3.642-3.646h-3.949
		h-23.2c-2.013,0-3.647,1.629-3.647,3.646C94.349,90.807,95.983,92.441,97.996,92.441"/>
	<path fill="#FFFFFF" d="M97.996,71.624h24.335h2.815c2.017,0,3.642-1.633,3.642-3.647c0-2.017-1.625-3.646-3.642-3.646h-2.205
		H97.996c-2.013,0-3.647,1.629-3.647,3.646C94.349,69.991,95.983,71.624,97.996,71.624"/>
</g>
</svg>
