<?xml version="1.0" encoding="utf-8"?>
<!-- Generator: Adobe Illustrator 17.0.0, SVG Export Plug-In . SVG Version: 6.00 Build 0)  -->
<!DOCTYPE svg PUBLIC "-//W3C//DTD SVG 1.1//EN" "http://www.w3.org/Graphics/SVG/1.1/DTD/svg11.dtd">
<svg version="1.1" id="Capa_1" xmlns="http://www.w3.org/2000/svg" xmlns:xlink="http://www.w3.org/1999/xlink" x="0px" y="0px"
	 width="174.684px" height="149.869px" viewBox="0 0 174.684 149.869" enable-background="new 0 0 174.684 149.869"
	 xml:space="preserve">
<g>
	<path fill="#FFFFFF" d="M173.154,5.131c-1.109-1.241-2.683-1.974-4.346-2.025L62.726,0.001c-3.224-0.042-6.005,2.397-6.222,5.647
		c-0.038,0.618-4.171,60.159-19.127,90.332l13.204,0.264c11.583-27.286,16.185-68.71,17.545-83.969l93.893,2.751
		c-6.419,67.861-20.821,120.032-34.042,122.45c-2.098,0.388-9.928-0.448-22.761-27.188c-0.985-2.051-3.045-3.373-5.322-3.429
		l-93.697-2.162c-1.864-0.081-3.625,0.763-4.806,2.192c-1.181,1.429-1.646,3.318-1.254,5.131
		c0.311,1.467,8.026,35.927,36.379,36.596c30.681,0.725,89.94,1.249,90.533,1.254h0.051c0.665,0,1.305-0.111,1.906-0.307
		c0.38-0.047,0.763-0.102,1.147-0.175c29.781-5.442,41.044-99.416,44.507-139.706C174.809,8.019,174.263,6.377,173.154,5.131
		 M36.805,136.503c-12.266-0.286-19.076-11.605-22.339-19.507l81.47,1.889c3.169,6.333,6.986,13.101,11.438,18.671
		C87.219,137.343,56.239,136.964,36.805,136.503"/>
	<path fill="#FFFFFF" d="M138.272,43.164c0.042,0,0.09,0.004,0.128,0.004c1.949,0,3.561-1.544,3.629-3.505
		c0.072-2.005-1.493-3.685-3.501-3.762l-54.107-1.902c-1.991-0.013-3.685,1.501-3.753,3.501c-0.072,2.005,1.497,3.689,3.502,3.762
		L138.272,43.164z"/>
	<path fill="#FFFFFF" d="M76.689,61.976c-0.072,2.005,1.497,3.689,3.502,3.762l50.576,1.783c0.043,0,0.086,0,0.132,0
		c1.945,0,3.557-1.544,3.625-3.51c0.072-2.004-1.497-3.685-3.502-3.753L80.45,58.475C78.446,58.428,76.757,59.972,76.689,61.976"/>
	<path fill="#FFFFFF" d="M70.283,86.541c-0.072,2.009,1.497,3.689,3.502,3.762l28.868,1.011c0.043,0.004,0.081,0.004,0.128,0.004
		c1.949,0,3.561-1.54,3.625-3.506c0.072-2.008-1.493-3.685-3.502-3.761l-28.86-1.011C72.041,83.027,70.351,84.537,70.283,86.541"/>
</g>
</svg>
