<?xml version="1.0" encoding="utf-8"?>
<!-- Generator: Adobe Illustrator 17.0.0, SVG Export Plug-In . SVG Version: 6.00 Build 0)  -->
<!DOCTYPE svg PUBLIC "-//W3C//DTD SVG 1.1//EN" "http://www.w3.org/Graphics/SVG/1.1/DTD/svg11.dtd">
<svg version="1.1" id="Capa_1" xmlns="http://www.w3.org/2000/svg" xmlns:xlink="http://www.w3.org/1999/xlink" x="0px" y="0px"
	 width="307.658px" height="71.856px" viewBox="0 0 307.658 71.856" enable-background="new 0 0 307.658 71.856"
	 xml:space="preserve">
<g>
	<rect x="0.489" y="0.481" fill="#FFFFFF" width="306.687" height="70.893"/>
	<path fill="#C6C7C8" d="M307.655,71.854H0.01V0.002h307.645V71.854z M0.968,70.895h305.728V0.96H0.968V70.895z"/>
</g>
<g>
	<g>
		<rect x="2.959" y="4.572" fill="none" width="303.071" height="7.409"/>
	</g>
	<g enable-background="new    ">
		<g>
			<path fill="#87888A" d="M145.691,9.969c-0.444,0-1.004-0.076-1.44-0.245l0.084-0.367c0.46,0.138,0.927,0.207,1.371,0.207
				c0.874,0,1.111-0.261,1.111-0.912c0-0.789-0.008-0.873-1.142-1.134c-1.233-0.283-1.371-0.505-1.371-1.531
				c0-0.835,0.307-1.271,1.586-1.271c0.444,0,0.973,0.076,1.317,0.176l-0.054,0.383c-0.376-0.084-0.851-0.153-1.249-0.153
				c-1.011,0-1.148,0.245-1.148,0.881c0,0.827,0.022,0.866,1.095,1.134c1.341,0.337,1.417,0.528,1.417,1.494
				C147.268,9.464,146.985,9.969,145.691,9.969z"/>
		</g>
		<g>
			<path fill="#87888A" d="M148.874,8.484c0,0.796,0.353,1.08,1.279,1.08c0.329,0,0.789-0.038,1.134-0.1l0.054,0.391
				c-0.384,0.076-0.858,0.114-1.226,0.114c-1.233,0-1.693-0.528-1.693-1.478V6.193c0-0.949,0.46-1.478,1.693-1.478
				c0.367,0,0.842,0.038,1.226,0.114l-0.054,0.391c-0.345-0.061-0.805-0.1-1.134-0.1c-0.927,0-1.279,0.284-1.279,1.08V8.484z"/>
		</g>
		<g>
			<path fill="#87888A" d="M153.986,9.969c-1.31,0-1.784-0.643-1.784-1.517V6.232c0-0.874,0.475-1.517,1.784-1.517
				s1.785,0.643,1.785,1.517v2.221C155.771,9.326,155.296,9.969,153.986,9.969z M155.319,8.438V6.246
				c0-0.728-0.353-1.126-1.333-1.126s-1.333,0.398-1.333,1.126v2.191c0,0.728,0.353,1.126,1.333,1.126S155.319,9.165,155.319,8.438z
				"/>
		</g>
		<g>
			<path fill="#87888A" d="M158.947,7.932h-0.1h-1.356v1.961h-0.451V4.791h1.808c1.026,0,1.401,0.468,1.401,1.18v0.781
				c0,0.56-0.229,0.973-0.827,1.118l1.363,2.022h-0.513L158.947,7.932z M158.855,5.198h-1.364v2.328h1.364
				c0.644,0,0.941-0.214,0.941-0.773V5.971C159.797,5.411,159.499,5.198,158.855,5.198z"/>
		</g>
		<g>
			<path fill="#87888A" d="M161.785,4.791h2.873v0.406h-2.421v1.892h2.252v0.406h-2.252v1.991h2.428v0.406h-2.88V4.791z"/>
		</g>
	</g>
</g>
<g>
	<rect x="4.003" y="17.639" fill="none" width="63.893" height="8.546"/>
</g>
<g enable-background="new    ">
	<g>
		<path fill="#87888A" d="M4.693,17.859h1.731c1.026,0,1.402,0.468,1.402,1.18v0.797c0,0.712-0.375,1.18-1.402,1.18H5.145v1.945
			H4.693V17.859z M6.432,18.265H5.145v2.344h1.287c0.644,0,0.942-0.215,0.942-0.773v-0.797C7.374,18.479,7.076,18.265,6.432,18.265z
			"/>
	</g>
	<g>
		<path fill="#87888A" d="M10.45,19.59c-0.391,0.168-0.819,0.452-1.18,0.689v2.681H8.826v-3.73h0.398l0.023,0.567
			c0.398-0.261,0.797-0.514,1.149-0.644L10.45,19.59z"/>
	</g>
	<g>
		<path fill="#87888A" d="M12.428,23.036c-1.049,0-1.448-0.59-1.448-1.355v-1.172c0-0.766,0.398-1.355,1.448-1.355
			s1.448,0.59,1.448,1.355v1.172C13.876,22.447,13.477,23.036,12.428,23.036z M13.432,20.493c0-0.628-0.306-0.941-1.003-0.941
			c-0.697,0-1.003,0.313-1.003,0.941v1.203c0,0.628,0.307,0.942,1.003,0.942c0.697,0,1.003-0.314,1.003-0.942V20.493z"/>
	</g>
	<g>
		<path fill="#87888A" d="M17.272,22.96v-3.018c0-0.276-0.146-0.376-0.406-0.376c-0.307,0-0.965,0.184-1.433,0.429v2.965H14.99
			v-3.73h0.391l0.03,0.337c0.398-0.191,1.065-0.413,1.517-0.413c0.583,0,0.789,0.329,0.789,0.842v2.965H17.272z"/>
	</g>
	<g>
		<path fill="#87888A" d="M20.241,23.036c-1.049,0-1.448-0.59-1.448-1.355v-1.172c0-0.766,0.398-1.355,1.448-1.355
			s1.448,0.59,1.448,1.355v1.172C21.688,22.447,21.29,23.036,20.241,23.036z M21.244,20.493c0-0.628-0.306-0.941-1.003-0.941
			c-0.697,0-1.003,0.313-1.003,0.941v1.203c0,0.628,0.307,0.942,1.003,0.942c0.697,0,1.003-0.314,1.003-0.942V20.493z
			 M19.865,18.464c0.307-0.191,0.667-0.422,1.004-0.659l0.222,0.337c-0.329,0.237-0.705,0.46-1.019,0.636L19.865,18.464z"/>
	</g>
	<g>
		<path fill="#87888A" d="M23.783,23.036c-0.375,0-0.819-0.076-1.095-0.191l0.077-0.359c0.322,0.1,0.712,0.153,0.988,0.153
			c0.689,0,0.827-0.131,0.827-0.605c0-0.536-0.015-0.59-0.866-0.789c-0.935-0.222-1.011-0.452-1.011-1.134
			c0-0.62,0.299-0.957,1.218-0.957c0.345,0,0.766,0.046,1.057,0.13l-0.046,0.375c-0.299-0.061-0.735-0.106-1.042-0.106
			c-0.651,0-0.743,0.168-0.743,0.574c0,0.513,0.031,0.566,0.72,0.743c1.095,0.275,1.157,0.451,1.157,1.148
			C25.024,22.692,24.779,23.036,23.783,23.036z"/>
	</g>
	<g>
		<path fill="#87888A" d="M28.06,22.891c-0.214,0.085-0.513,0.146-0.781,0.146c-0.59,0-0.843-0.214-0.843-0.804v-2.62h-0.72V19.23
			h0.72v-0.881l0.444-0.062v0.942h1.142l-0.046,0.383h-1.095v2.574c0,0.329,0.046,0.467,0.429,0.467
			c0.207,0,0.444-0.038,0.666-0.107L28.06,22.891z"/>
	</g>
	<g>
		<path fill="#87888A" d="M28.982,18.525v-0.819h0.444v0.819H28.982z M28.982,22.96v-3.73h0.444v3.73H28.982z"/>
	</g>
	<g>
		<path fill="#87888A" d="M30.945,21.765c0,0.667,0.268,0.874,0.965,0.874c0.222,0,0.483-0.023,0.797-0.077l0.054,0.368
			c-0.261,0.068-0.598,0.106-0.851,0.106c-1.049,0-1.409-0.482-1.409-1.286V20.44c0-0.804,0.36-1.286,1.409-1.286
			c0.253,0,0.59,0.038,0.851,0.106l-0.054,0.368c-0.314-0.054-0.575-0.076-0.797-0.076c-0.697,0-0.965,0.206-0.965,0.873V21.765z"/>
	</g>
	<g>
		<path fill="#87888A" d="M35.031,23.036c-1.049,0-1.448-0.59-1.448-1.355v-1.172c0-0.766,0.398-1.355,1.448-1.355
			s1.448,0.59,1.448,1.355v1.172C36.478,22.447,36.08,23.036,35.031,23.036z M36.034,20.493c0-0.628-0.306-0.941-1.003-0.941
			c-0.697,0-1.003,0.313-1.003,0.941v1.203c0,0.628,0.307,0.942,1.003,0.942c0.697,0,1.003-0.314,1.003-0.942V20.493z"/>
	</g>
	<g>
		<path fill="#87888A" d="M42.55,17.859h0.444l-1.8,5.102h-0.613l-1.8-5.102h0.444l1.662,4.695L42.55,17.859z"/>
	</g>
	<g>
		<path fill="#87888A" d="M45.894,22.96h-0.383l-0.03-0.291c-0.36,0.222-0.774,0.367-1.264,0.367c-0.659,0-0.965-0.375-0.965-1.041
			c0-0.789,0.36-1.034,1.095-1.034h1.103v-0.728c0-0.514-0.268-0.682-0.881-0.682c-0.368,0-0.758,0.053-1.103,0.122l-0.069-0.375
			c0.299-0.085,0.766-0.146,1.149-0.146c0.965,0,1.348,0.383,1.348,1.08V22.96z M45.45,21.36h-1.088
			c-0.513,0-0.666,0.153-0.666,0.644c0,0.437,0.092,0.636,0.613,0.636c0.368,0,0.804-0.146,1.141-0.384V21.36z"/>
	</g>
	<g>
		<path fill="#87888A" d="M48.746,19.59c-0.391,0.168-0.819,0.452-1.18,0.689v2.681h-0.444v-3.73h0.398l0.023,0.567
			c0.398-0.261,0.797-0.514,1.149-0.644L48.746,19.59z"/>
	</g>
	<g>
		<path fill="#87888A" d="M49.515,18.525v-0.819h0.444v0.819H49.515z M49.515,22.96v-3.73h0.444v3.73H49.515z"/>
	</g>
	<g>
		<path fill="#87888A" d="M53.752,22.96h-0.383l-0.03-0.291c-0.36,0.222-0.774,0.367-1.264,0.367c-0.659,0-0.965-0.375-0.965-1.041
			c0-0.789,0.36-1.034,1.095-1.034h1.103v-0.728c0-0.514-0.268-0.682-0.881-0.682c-0.368,0-0.758,0.053-1.103,0.122l-0.069-0.375
			c0.299-0.085,0.766-0.146,1.149-0.146c0.965,0,1.348,0.383,1.348,1.08V22.96z M53.308,21.36H52.22
			c-0.513,0-0.666,0.153-0.666,0.644c0,0.437,0.092,0.636,0.613,0.636c0.368,0,0.804-0.146,1.141-0.384V21.36z"/>
	</g>
	<g>
		<path fill="#87888A" d="M57.724,21.719c0,0.835-0.368,1.317-1.494,1.317c-0.322,0-0.904-0.053-1.249-0.138v-5.193l0.444-0.062
			v1.793c0.307-0.161,0.72-0.283,1.226-0.283c0.751,0,1.073,0.429,1.073,1.087V21.719z M55.426,22.554
			c0.291,0.054,0.59,0.077,0.858,0.077c0.804,0,0.996-0.337,0.996-0.896v-1.501c0-0.444-0.199-0.651-0.689-0.651
			c-0.452,0-0.812,0.122-1.165,0.321V22.554z"/>
	</g>
	<g>
		<path fill="#87888A" d="M58.876,22.96v-5.255l0.444-0.062v5.316H58.876z"/>
	</g>
	<g>
		<path fill="#87888A" d="M61.85,22.646c0.383,0,0.812-0.076,1.18-0.176l0.077,0.36c-0.345,0.122-0.835,0.206-1.287,0.206
			c-1.049,0-1.387-0.543-1.387-1.355v-1.172c0-0.766,0.345-1.355,1.394-1.355c1.05,0,1.356,0.59,1.356,1.355v0.72h-2.306v0.468
			C60.877,22.363,61.107,22.646,61.85,22.646z M60.877,20.83h1.869v-0.337c0-0.628-0.222-0.957-0.919-0.957
			c-0.697,0-0.95,0.329-0.95,0.957V20.83z"/>
	</g>
</g>
<g>
	<rect x="67.896" y="17.639" fill="none" width="39.614" height="8.546"/>
</g>
<g enable-background="new    ">
	<g>
		<path fill="#87888A" d="M86.167,21.727c0,0.767-0.406,1.31-1.532,1.31s-1.532-0.543-1.532-1.31v-2.481
			c0-0.767,0.406-1.311,1.532-1.311s1.532,0.544,1.532,1.311V21.727z M83.547,21.697c0,0.628,0.253,0.942,1.088,0.942
			s1.088-0.314,1.088-0.942v-2.421c0-0.628-0.253-0.942-1.088-0.942s-1.088,0.314-1.088,0.942V21.697z"/>
	</g>
	<g>
		<path fill="#87888A" d="M87.458,22.301h0.475v0.659h-0.475V22.301z"/>
	</g>
	<g>
		<path fill="#87888A" d="M92.301,21.727c0,0.767-0.406,1.31-1.532,1.31s-1.532-0.543-1.532-1.31v-2.481
			c0-0.767,0.406-1.311,1.532-1.311s1.532,0.544,1.532,1.311V21.727z M89.681,21.697c0,0.628,0.253,0.942,1.088,0.942
			s1.088-0.314,1.088-0.942v-2.421c0-0.628-0.253-0.942-1.088-0.942s-1.088,0.314-1.088,0.942V21.697z"/>
	</g>
</g>
<g>
	<rect x="107.989" y="17.639" fill="none" width="53.733" height="8.546"/>
</g>
<g enable-background="new    ">
	<g>
		<path fill="#87888A" d="M133.568,21.727c0,0.767-0.406,1.31-1.532,1.31s-1.532-0.543-1.532-1.31v-2.481
			c0-0.767,0.406-1.311,1.532-1.311s1.532,0.544,1.532,1.311V21.727z M130.948,21.697c0,0.628,0.253,0.942,1.088,0.942
			s1.088-0.314,1.088-0.942v-2.421c0-0.628-0.253-0.942-1.088-0.942s-1.088,0.314-1.088,0.942V21.697z"/>
	</g>
	<g>
		<path fill="#87888A" d="M134.859,22.301h0.475v0.659h-0.475V22.301z"/>
	</g>
	<g>
		<path fill="#87888A" d="M136.715,18.012h2.527v0.398h-2.083v1.784c0.321,0.008,0.475,0.008,0.881,0.016
			c0.927,0.016,1.24,0.482,1.24,1.172v0.422c0,0.789-0.359,1.232-1.509,1.232c-0.398,0-0.873-0.038-1.248-0.168l0.076-0.368
			c0.375,0.1,0.805,0.139,1.172,0.139c0.812,0,1.064-0.223,1.064-0.866v-0.329c0-0.59-0.184-0.819-0.881-0.835
			c-0.421-0.008-0.865-0.008-1.24-0.016V18.012z"/>
	</g>
</g>
<g>
	<rect x="161.789" y="17.639" fill="none" width="32.585" height="8.546"/>
</g>
<g enable-background="new    ">
	<g>
		<path fill="#87888A" d="M173.842,18.755l1.295-0.743h0.398v4.948h-0.444v-4.42l-1.034,0.582L173.842,18.755z"/>
	</g>
	<g>
		<path fill="#87888A" d="M176.954,22.301h0.476v0.659h-0.476V22.301z"/>
	</g>
	<g>
		<path fill="#87888A" d="M181.797,21.727c0,0.767-0.405,1.31-1.531,1.31c-1.127,0-1.532-0.543-1.532-1.31v-2.481
			c0-0.767,0.405-1.311,1.532-1.311c1.126,0,1.531,0.544,1.531,1.311V21.727z M179.178,21.697c0,0.628,0.253,0.942,1.088,0.942
			c0.834,0,1.087-0.314,1.087-0.942v-2.421c0-0.628-0.253-0.942-1.087-0.942c-0.835,0-1.088,0.314-1.088,0.942V21.697z"/>
	</g>
</g>
<g>
	<rect x="193.417" y="17.639" fill="none" width="28.89" height="8.546"/>
</g>
<g enable-background="new    ">
	<g>
		<path fill="#87888A" d="M203.872,18.755l1.294-0.743h0.398v4.948h-0.444v-4.42l-1.034,0.582L203.872,18.755z"/>
	</g>
	<g>
		<path fill="#87888A" d="M206.983,22.301h0.476v0.659h-0.476V22.301z"/>
	</g>
	<g>
		<path fill="#87888A" d="M208.839,18.012h2.528v0.398h-2.083v1.784c0.321,0.008,0.475,0.008,0.881,0.016
			c0.926,0.016,1.24,0.482,1.24,1.172v0.422c0,0.789-0.359,1.232-1.509,1.232c-0.398,0-0.874-0.038-1.249-0.168l0.077-0.368
			c0.375,0.1,0.804,0.139,1.172,0.139c0.812,0,1.064-0.223,1.064-0.866v-0.329c0-0.59-0.184-0.819-0.881-0.835
			c-0.421-0.008-0.865-0.008-1.241-0.016V18.012z"/>
	</g>
</g>
<g>
	<rect x="222.488" y="17.639" fill="none" width="46.323" height="8.546"/>
</g>
<g enable-background="new    ">
	<g>
		<path fill="#87888A" d="M241.133,22.562c0.659-0.819,0.843-1.026,1.402-1.754c0.598-0.773,0.843-1.104,0.843-1.54v-0.122
			c0-0.582-0.115-0.812-1.034-0.812c-0.36,0-0.812,0.092-1.08,0.177l-0.084-0.383c0.268-0.093,0.766-0.192,1.21-0.192
			c1.188,0,1.433,0.438,1.433,1.195v0.115c0,0.552-0.207,0.843-0.935,1.815c-0.482,0.644-0.667,0.85-1.188,1.501h2.16v0.398h-2.728
			V22.562z"/>
	</g>
	<g>
		<path fill="#87888A" d="M245.128,22.301h0.475v0.659h-0.475V22.301z"/>
	</g>
	<g>
		<path fill="#87888A" d="M249.971,21.727c0,0.767-0.406,1.31-1.532,1.31s-1.532-0.543-1.532-1.31v-2.481
			c0-0.767,0.406-1.311,1.532-1.311s1.532,0.544,1.532,1.311V21.727z M247.35,21.697c0,0.628,0.253,0.942,1.088,0.942
			s1.088-0.314,1.088-0.942v-2.421c0-0.628-0.253-0.942-1.088-0.942s-1.088,0.314-1.088,0.942V21.697z"/>
	</g>
</g>
<g>
	<rect x="4.003" y="32.973" fill="none" width="63.893" height="8.127"/>
</g>
<g enable-background="new    ">
	<g>
		<path fill="#87888A" d="M4.693,38.294v-5.102h1.915c0.689,0,1.095,0.329,1.095,1.004v0.612c0,0.406-0.168,0.674-0.582,0.827
			c0.398,0.054,0.743,0.383,0.743,0.95v0.666c0,0.705-0.513,1.042-1.172,1.042H4.693z M7.252,34.135
			c0-0.353-0.199-0.544-0.636-0.544H5.145v1.892h1.318c0.559,0,0.789-0.291,0.789-0.696V34.135z M7.412,36.602
			c0-0.43-0.253-0.721-0.843-0.721H5.145v2.015H6.7c0.482,0,0.712-0.237,0.712-0.644V36.602z"/>
	</g>
	<g>
		<path fill="#87888A" d="M8.941,38.294v-5.255l0.444-0.062v5.316H8.941z"/>
	</g>
	<g>
		<path fill="#87888A" d="M13.179,38.294h-0.383l-0.031-0.291c-0.36,0.222-0.774,0.367-1.264,0.367
			c-0.659,0-0.965-0.375-0.965-1.041c0-0.789,0.36-1.034,1.095-1.034h1.103v-0.728c0-0.514-0.268-0.682-0.881-0.682
			c-0.368,0-0.758,0.053-1.103,0.122l-0.069-0.375c0.299-0.085,0.766-0.146,1.149-0.146c0.965,0,1.348,0.383,1.348,1.08V38.294z
			 M12.734,36.694h-1.088c-0.513,0-0.666,0.153-0.666,0.644c0,0.437,0.092,0.636,0.613,0.636c0.368,0,0.804-0.146,1.141-0.384
			V36.694z"/>
	</g>
	<g>
		<path fill="#87888A" d="M15.388,38.37c-0.375,0-0.819-0.076-1.095-0.191l0.077-0.359c0.322,0.1,0.712,0.153,0.988,0.153
			c0.689,0,0.827-0.131,0.827-0.605c0-0.536-0.015-0.59-0.866-0.789c-0.935-0.222-1.011-0.452-1.011-1.134
			c0-0.62,0.299-0.957,1.218-0.957c0.345,0,0.766,0.046,1.057,0.13l-0.046,0.375c-0.299-0.061-0.735-0.106-1.042-0.106
			c-0.651,0-0.743,0.168-0.743,0.574c0,0.513,0.031,0.566,0.72,0.743c1.095,0.275,1.157,0.451,1.157,1.148
			C16.629,38.026,16.384,38.37,15.388,38.37z"/>
	</g>
	<g>
		<path fill="#87888A" d="M19.665,38.225c-0.214,0.085-0.513,0.146-0.781,0.146c-0.59,0-0.843-0.214-0.843-0.804v-2.62h-0.72v-0.383
			h0.72v-0.881l0.444-0.062v0.942h1.142l-0.046,0.383h-1.095v2.574c0,0.329,0.046,0.467,0.429,0.467
			c0.207,0,0.444-0.038,0.666-0.107L19.665,38.225z"/>
	</g>
	<g>
		<path fill="#87888A" d="M21.828,38.37c-1.049,0-1.448-0.59-1.448-1.355v-1.172c0-0.766,0.398-1.355,1.448-1.355
			s1.448,0.59,1.448,1.355v1.172C23.276,37.781,22.877,38.37,21.828,38.37z M22.831,35.827c0-0.628-0.306-0.941-1.003-0.941
			c-0.697,0-1.003,0.313-1.003,0.941v1.203c0,0.628,0.307,0.942,1.003,0.942c0.697,0,1.003-0.314,1.003-0.942V35.827z"/>
	</g>
	<g>
		<path fill="#87888A" d="M25.37,38.37c-0.375,0-0.819-0.076-1.095-0.191l0.077-0.359c0.322,0.1,0.712,0.153,0.988,0.153
			c0.689,0,0.827-0.131,0.827-0.605c0-0.536-0.015-0.59-0.866-0.789c-0.935-0.222-1.011-0.452-1.011-1.134
			c0-0.62,0.299-0.957,1.218-0.957c0.345,0,0.766,0.046,1.057,0.13l-0.046,0.375c-0.299-0.061-0.735-0.106-1.042-0.106
			c-0.651,0-0.743,0.168-0.743,0.574c0,0.513,0.031,0.566,0.72,0.743c1.095,0.275,1.157,0.451,1.157,1.148
			C26.611,38.026,26.366,38.37,25.37,38.37z"/>
	</g>
	<g>
		<path fill="#87888A" d="M33.64,33.645l-1.486,3.99h-0.697l-1.486-3.99l-0.107,4.649h-0.452l0.153-5.102h0.659l1.586,4.167
			l1.578-4.167h0.659l0.153,5.102h-0.452L33.64,33.645z"/>
	</g>
	<g>
		<path fill="#87888A" d="M35.545,37.635h0.475v0.659h-0.475V37.635z"/>
	</g>
	<g>
		<path fill="#87888A" d="M38.956,38.37c-1.31,0-1.785-0.643-1.785-1.517v-2.221c0-0.874,0.475-1.517,1.785-1.517
			c1.31,0,1.785,0.643,1.785,1.517v2.221C40.741,37.728,40.266,38.37,38.956,38.37z M40.288,36.839v-2.191
			c0-0.728-0.352-1.126-1.333-1.126s-1.333,0.398-1.333,1.126v2.191c0,0.728,0.353,1.126,1.333,1.126S40.288,37.567,40.288,36.839z"
			/>
	</g>
	<g>
		<path fill="#87888A" d="M44.76,39.474c-0.781-1.118-1.179-2.229-1.179-3.508c0-1.279,0.398-2.391,1.179-3.509l0.322,0.223
			c-0.827,1.31-1.057,2.183-1.057,3.286c0,1.103,0.23,1.976,1.057,3.285L44.76,39.474z"/>
	</g>
	<g>
		<path fill="#87888A" d="M47.842,34.893c0,0.629-0.322,1.012-1.088,1.012s-1.095-0.383-1.095-1.012v-0.766
			c0-0.628,0.329-1.011,1.095-1.011s1.088,0.383,1.088,1.011V34.893z M46.041,34.901c0,0.422,0.176,0.667,0.712,0.667
			s0.705-0.245,0.705-0.667v-0.781c0-0.421-0.168-0.666-0.705-0.666s-0.712,0.245-0.712,0.666V34.901z M47.581,38.37l-0.337-0.13
			l2.091-5.124l0.337,0.138L47.581,38.37z M51.235,37.36c0,0.628-0.322,1.011-1.087,1.011c-0.766,0-1.096-0.383-1.096-1.011v-0.766
			c0-0.628,0.33-1.012,1.096-1.012c0.766,0,1.087,0.384,1.087,1.012V37.36z M49.435,37.367c0,0.421,0.176,0.666,0.712,0.666
			s0.705-0.245,0.705-0.666v-0.781c0-0.422-0.168-0.667-0.705-0.667s-0.712,0.245-0.712,0.667V37.367z"/>
	</g>
	<g>
		<path fill="#87888A" d="M51.739,39.251c0.827-1.31,1.057-2.183,1.057-3.285c0-1.104-0.23-1.977-1.057-3.286l0.322-0.223
			c0.781,1.118,1.179,2.229,1.179,3.509c0,1.278-0.398,2.39-1.179,3.508L51.739,39.251z"/>
	</g>
</g>
<g>
	<rect x="67.896" y="32.973" fill="none" width="39.614" height="8.127"/>
</g>
<g enable-background="new    ">
	<g>
		<path fill="#87888A" d="M84.085,36.264l3.049-1.776l0.191,0.321l-2.796,1.616l2.812,1.624l-0.192,0.321l-3.063-1.784V36.264z"/>
	</g>
	<g>
		<path fill="#87888A" d="M88.608,33.346h2.527v0.398h-2.083v1.784c0.321,0.008,0.475,0.008,0.881,0.016
			c0.927,0.016,1.24,0.482,1.24,1.172v0.422c0,0.789-0.359,1.232-1.509,1.232c-0.398,0-0.873-0.038-1.248-0.168l0.076-0.368
			c0.375,0.1,0.805,0.139,1.172,0.139c0.812,0,1.064-0.223,1.064-0.866v-0.329c0-0.59-0.184-0.819-0.881-0.835
			c-0.421-0.008-0.865-0.008-1.24-0.016V33.346z"/>
	</g>
</g>
<g>
	<rect x="107.989" y="32.973" fill="none" width="53.899" height="8.127"/>
</g>
<g enable-background="new    ">
	<g>
		<path fill="#87888A" d="M128.958,33.346h2.528v0.398h-2.083v1.784c0.322,0.008,0.475,0.008,0.881,0.016
			c0.927,0.016,1.241,0.482,1.241,1.172v0.422c0,0.789-0.36,1.232-1.509,1.232c-0.398,0-0.874-0.038-1.249-0.168l0.077-0.368
			c0.375,0.1,0.804,0.139,1.172,0.139c0.812,0,1.064-0.223,1.064-0.866v-0.329c0-0.59-0.184-0.819-0.881-0.835
			c-0.421-0.008-0.865-0.008-1.241-0.016V33.346z"/>
	</g>
	<g>
		<path fill="#87888A" d="M132.562,35.958h1.777v0.375h-1.777V35.958z"/>
	</g>
	<g>
		<path fill="#87888A" d="M134.648,34.089l1.294-0.743h0.398v4.948h-0.444v-4.42l-1.034,0.582L134.648,34.089z"/>
	</g>
	<g>
		<path fill="#87888A" d="M140.747,37.061c0,0.767-0.406,1.31-1.532,1.31c-1.126,0-1.532-0.543-1.532-1.31v-2.481
			c0-0.767,0.406-1.311,1.532-1.311c1.126,0,1.532,0.544,1.532,1.311V37.061z M138.128,37.031c0,0.628,0.253,0.942,1.087,0.942
			c0.835,0,1.088-0.314,1.088-0.942V34.61c0-0.628-0.253-0.942-1.088-0.942c-0.834,0-1.087,0.314-1.087,0.942V37.031z"/>
	</g>
</g>
<g>
	<rect x="67.896" y="47.988" fill="none" width="39.614" height="7.587"/>
</g>
<g enable-background="new    ">
	<g>
		<path fill="#87888A" d="M78.526,53.31v-5.102h1.915c0.689,0,1.095,0.329,1.095,1.004v0.612c0,0.406-0.168,0.674-0.582,0.827
			c0.398,0.054,0.743,0.383,0.743,0.95v0.666c0,0.705-0.513,1.042-1.172,1.042H78.526z M81.084,49.151
			c0-0.353-0.199-0.544-0.636-0.544h-1.471v1.892h1.318c0.559,0,0.789-0.291,0.789-0.696V49.151z M81.245,51.617
			c0-0.43-0.253-0.721-0.843-0.721h-1.425v2.015h1.555c0.482,0,0.712-0.237,0.712-0.644V51.617z"/>
	</g>
	<g>
		<path fill="#87888A" d="M83.18,49.579v3.019c0,0.275,0.146,0.375,0.406,0.375c0.307,0,0.965-0.184,1.433-0.429v-2.965h0.444v3.73
			h-0.391l-0.031-0.337c-0.398,0.191-1.065,0.413-1.517,0.413c-0.582,0-0.789-0.329-0.789-0.842v-2.965H83.18z"/>
	</g>
	<g>
		<path fill="#87888A" d="M87.993,52.995c0.383,0,0.812-0.076,1.18-0.176l0.077,0.36c-0.345,0.122-0.835,0.206-1.287,0.206
			c-1.049,0-1.387-0.543-1.387-1.355v-1.172c0-0.766,0.345-1.355,1.394-1.355c1.05,0,1.356,0.59,1.356,1.355v0.72H87.02v0.468
			C87.02,52.712,87.25,52.995,87.993,52.995z M87.02,51.18h1.869v-0.337c0-0.628-0.222-0.957-0.919-0.957
			c-0.697,0-0.95,0.329-0.95,0.957V51.18z"/>
	</g>
	<g>
		<path fill="#87888A" d="M92.723,53.31v-3.018c0-0.276-0.146-0.376-0.406-0.376c-0.307,0-0.965,0.184-1.433,0.429v2.965H90.44
			v-3.73h0.391l0.03,0.337c0.398-0.191,1.065-0.413,1.517-0.413c0.583,0,0.789,0.329,0.789,0.842v2.965H92.723z"/>
	</g>
	<g>
		<path fill="#87888A" d="M95.691,53.386c-1.049,0-1.448-0.59-1.448-1.355v-1.172c0-0.766,0.398-1.355,1.448-1.355
			s1.448,0.59,1.448,1.355v1.172C97.139,52.796,96.741,53.386,95.691,53.386z M96.695,50.843c0-0.628-0.306-0.941-1.003-0.941
			c-0.697,0-1.003,0.313-1.003,0.941v1.203c0,0.628,0.307,0.942,1.003,0.942c0.697,0,1.003-0.314,1.003-0.942V50.843z"/>
	</g>
</g>
<g>
	<rect x="107.989" y="47.988" fill="none" width="53.188" height="7.587"/>
</g>
<g enable-background="new    ">
	<g>
		<path fill="#87888A" d="M118.665,53.31h-0.452v-5.102h0.452V53.31z"/>
	</g>
	<g>
		<path fill="#87888A" d="M122.328,53.31v-3.018c0-0.276-0.146-0.376-0.406-0.376c-0.307,0-0.965,0.184-1.433,0.429v2.965h-0.444
			v-3.73h0.391l0.03,0.337c0.398-0.191,1.065-0.413,1.517-0.413c0.583,0,0.789,0.329,0.789,0.842v2.965H122.328z"/>
	</g>
	<g>
		<path fill="#87888A" d="M125.963,53.241c-0.214,0.085-0.513,0.146-0.781,0.146c-0.59,0-0.843-0.214-0.843-0.804v-2.62h-0.72
			v-0.383h0.72v-0.881l0.444-0.062v0.942h1.142l-0.046,0.383h-1.095v2.574c0,0.329,0.046,0.467,0.429,0.467
			c0.207,0,0.444-0.038,0.666-0.107L125.963,53.241z"/>
	</g>
	<g>
		<path fill="#87888A" d="M128.095,52.995c0.383,0,0.812-0.076,1.18-0.176l0.077,0.36c-0.345,0.122-0.835,0.206-1.287,0.206
			c-1.05,0-1.387-0.543-1.387-1.355v-1.172c0-0.766,0.345-1.355,1.394-1.355c1.05,0,1.356,0.59,1.356,1.355v0.72h-2.306v0.468
			C127.122,52.712,127.352,52.995,128.095,52.995z M127.122,51.18h1.869v-0.337c0-0.628-0.222-0.957-0.919-0.957
			c-0.697,0-0.95,0.329-0.95,0.957V51.18z"/>
	</g>
	<g>
		<path fill="#87888A" d="M132.166,49.94c-0.391,0.168-0.819,0.452-1.18,0.689v2.681h-0.444v-3.73h0.398l0.023,0.567
			c0.398-0.261,0.797-0.514,1.149-0.644L132.166,49.94z"/>
	</g>
	<g>
		<path fill="#87888A" d="M137.499,53.31v-3.018c0-0.276-0.146-0.376-0.406-0.376c-0.353,0-0.965,0.184-1.433,0.429v2.965h-0.444
			v-3.018c0-0.276-0.146-0.376-0.406-0.376c-0.307,0-0.965,0.184-1.433,0.429v2.965h-0.444v-3.73h0.391l0.031,0.337
			c0.398-0.191,1.065-0.413,1.517-0.413c0.398,0,0.621,0.153,0.72,0.413c0.429-0.199,1.111-0.413,1.562-0.413
			c0.582,0,0.789,0.329,0.789,0.842v2.965H137.499z"/>
	</g>
	<g>
		<path fill="#87888A" d="M140.439,52.995c0.383,0,0.812-0.076,1.18-0.176l0.077,0.36c-0.345,0.122-0.835,0.206-1.287,0.206
			c-1.05,0-1.387-0.543-1.387-1.355v-1.172c0-0.766,0.345-1.355,1.394-1.355c1.05,0,1.356,0.59,1.356,1.355v0.72h-2.306v0.468
			C139.466,52.712,139.696,52.995,140.439,52.995z M139.466,51.18h1.869v-0.337c0-0.628-0.222-0.957-0.919-0.957
			c-0.697,0-0.95,0.329-0.95,0.957V51.18z"/>
	</g>
	<g>
		<path fill="#87888A" d="M142.771,50.652c0-0.682,0.307-1.148,1.149-1.148c0.391,0,0.72,0.038,1.149,0.122v-1.57l0.444-0.062v5.316
			h-0.406l-0.023-0.353c-0.375,0.283-0.843,0.429-1.256,0.429c-0.728,0-1.057-0.359-1.057-1.033V50.652z M145.069,50.032
			c-0.406-0.084-0.804-0.13-1.164-0.13c-0.49,0-0.689,0.245-0.689,0.75v1.701c0,0.429,0.138,0.636,0.644,0.636
			c0.459,0,0.858-0.192,1.21-0.476V50.032z"/>
	</g>
	<g>
		<path fill="#87888A" d="M146.819,48.874v-0.819h0.444v0.819H146.819z M146.819,53.31v-3.73h0.444v3.73H146.819z"/>
	</g>
	<g>
		<path fill="#87888A" d="M149.824,53.386c-1.049,0-1.448-0.59-1.448-1.355v-1.172c0-0.766,0.398-1.355,1.448-1.355
			s1.448,0.59,1.448,1.355v1.172C151.271,52.796,150.873,53.386,149.824,53.386z M150.827,50.843c0-0.628-0.306-0.941-1.003-0.941
			c-0.697,0-1.003,0.313-1.003,0.941v1.203c0,0.628,0.307,0.942,1.003,0.942c0.697,0,1.003-0.314,1.003-0.942V50.843z"/>
	</g>
</g>
<g>
	<rect x="67.896" y="60.767" fill="none" width="39.614" height="10.607"/>
</g>
<g enable-background="new    ">
	<g>
		<path fill="#87888A" d="M84.925,64.855c0,0.767-0.406,1.31-1.532,1.31s-1.532-0.543-1.532-1.31v-2.481
			c0-0.767,0.406-1.311,1.532-1.311s1.532,0.544,1.532,1.311V64.855z M82.305,64.824c0,0.628,0.253,0.942,1.088,0.942
			s1.088-0.314,1.088-0.942v-2.421c0-0.628-0.253-0.942-1.088-0.942s-1.088,0.314-1.088,0.942V64.824z"/>
	</g>
	<g>
		<path fill="#87888A" d="M87.726,63.752h1.776v0.375h-1.776V63.752z"/>
	</g>
	<g>
		<path fill="#87888A" d="M91.766,61.883l1.295-0.743h0.398v4.948h-0.444v-4.42l-1.034,0.582L91.766,61.883z"/>
	</g>
</g>
<g>
	<rect x="161.789" y="47.988" fill="none" width="31.308" height="7.587"/>
</g>
<g enable-background="new    ">
	<g>
		<path fill="#87888A" d="M174.643,48.66l-1.485,3.99h-0.697l-1.486-3.99l-0.107,4.649h-0.452l0.153-5.102h0.659l1.586,4.167
			l1.577-4.167h0.659l0.153,5.102h-0.452L174.643,48.66z"/>
	</g>
	<g>
		<path fill="#87888A" d="M179,53.31h-0.383l-0.03-0.291c-0.36,0.222-0.774,0.367-1.265,0.367c-0.658,0-0.965-0.375-0.965-1.041
			c0-0.789,0.36-1.034,1.096-1.034h1.103v-0.728c0-0.514-0.268-0.682-0.881-0.682c-0.367,0-0.758,0.053-1.103,0.122l-0.069-0.375
			c0.299-0.085,0.767-0.146,1.149-0.146c0.965,0,1.348,0.383,1.348,1.08V53.31z M178.556,51.709h-1.088
			c-0.513,0-0.666,0.153-0.666,0.644c0,0.437,0.092,0.636,0.613,0.636c0.367,0,0.804-0.146,1.141-0.384V51.709z"/>
	</g>
	<g>
		<path fill="#87888A" d="M180.229,53.31v-5.255l0.444-0.062v5.316H180.229z"/>
	</g>
	<g>
		<path fill="#87888A" d="M183.233,53.386c-1.049,0-1.447-0.59-1.447-1.355v-1.172c0-0.766,0.398-1.355,1.447-1.355
			c1.05,0,1.448,0.59,1.448,1.355v1.172C184.682,52.796,184.283,53.386,183.233,53.386z M184.237,50.843
			c0-0.628-0.307-0.941-1.004-0.941c-0.696,0-1.003,0.313-1.003,0.941v1.203c0,0.628,0.307,0.942,1.003,0.942
			c0.697,0,1.004-0.314,1.004-0.942V50.843z"/>
	</g>
</g>
<g>
	<rect x="107.51" y="60.767" fill="none" width="54.622" height="10.338"/>
</g>
<g enable-background="new    ">
	<g>
		<path fill="#87888A" d="M128.431,65.689c0.659-0.819,0.843-1.026,1.402-1.754c0.598-0.773,0.843-1.104,0.843-1.54v-0.122
			c0-0.582-0.115-0.812-1.034-0.812c-0.36,0-0.812,0.092-1.08,0.177l-0.084-0.383c0.268-0.093,0.766-0.192,1.21-0.192
			c1.188,0,1.433,0.438,1.433,1.195v0.115c0,0.552-0.207,0.843-0.935,1.815c-0.482,0.644-0.667,0.85-1.188,1.501h2.16v0.398h-2.727
			V65.689z"/>
	</g>
	<g>
		<path fill="#87888A" d="M133.921,63.751h1.777v0.375h-1.777V63.751z"/>
	</g>
	<g>
		<path fill="#87888A" d="M138.375,65.627c0.36,0.085,0.758,0.139,1.103,0.139c0.773,0,1.111-0.153,1.111-0.759v-0.49
			c0-0.49-0.314-0.72-0.866-0.72h-1.026v-0.398h0.98c0.567,0,0.819-0.269,0.819-0.697v-0.544c0-0.513-0.252-0.697-0.919-0.697
			c-0.345,0-0.789,0.054-1.111,0.115l-0.061-0.383c0.314-0.069,0.773-0.131,1.157-0.131c0.988,0,1.378,0.368,1.378,1.065v0.536
			c0,0.475-0.138,0.743-0.613,0.927c0.421,0.092,0.705,0.375,0.705,0.896v0.551c0,0.812-0.521,1.126-1.57,1.126
			c-0.322,0-0.774-0.046-1.157-0.152L138.375,65.627z"/>
	</g>
</g>
<g>
	<rect x="161.789" y="32.973" fill="none" width="31.627" height="8.127"/>
</g>
<g enable-background="new    ">
	<g>
		<path fill="#87888A" d="M176.713,35.958h1.776v0.375h-1.776V35.958z"/>
	</g>
</g>
<g>
	<rect x="193.417" y="32.973" fill="none" width="28.605" height="8.127"/>
</g>
<g enable-background="new    ">
	<g>
		<path fill="#87888A" d="M198.243,34.089l1.295-0.743h0.398v4.948h-0.444v-4.42l-1.034,0.582L198.243,34.089z"/>
	</g>
	<g>
		<path fill="#87888A" d="M200.743,34.089l1.295-0.743h0.398v4.948h-0.445v-4.42l-1.033,0.582L200.743,34.089z"/>
	</g>
	<g>
		<path fill="#87888A" d="M205.35,35.958h1.777v0.375h-1.777V35.958z"/>
	</g>
	<g>
		<path fill="#87888A" d="M209.72,37.896c0.66-0.819,0.844-1.026,1.402-1.754c0.598-0.773,0.843-1.104,0.843-1.54V34.48
			c0-0.582-0.114-0.812-1.034-0.812c-0.359,0-0.812,0.092-1.08,0.177l-0.084-0.383c0.268-0.093,0.766-0.192,1.21-0.192
			c1.188,0,1.433,0.438,1.433,1.195v0.115c0,0.552-0.207,0.843-0.935,1.815c-0.482,0.644-0.667,0.85-1.188,1.501h2.16v0.398h-2.728
			V37.896z"/>
	</g>
	<g>
		<path fill="#87888A" d="M216.664,37.061c0,0.767-0.405,1.31-1.532,1.31c-1.126,0-1.531-0.543-1.531-1.31v-2.481
			c0-0.767,0.405-1.311,1.531-1.311c1.127,0,1.532,0.544,1.532,1.311V37.061z M214.044,37.031c0,0.628,0.254,0.942,1.088,0.942
			c0.835,0,1.088-0.314,1.088-0.942V34.61c0-0.628-0.253-0.942-1.088-0.942c-0.834,0-1.088,0.314-1.088,0.942V37.031z"/>
	</g>
</g>
<g>
	<rect x="222.488" y="32.973" fill="none" width="46.961" height="8.127"/>
</g>
<g enable-background="new    ">
	<g>
		<path fill="#87888A" d="M236.188,37.896c0.659-0.819,0.843-1.026,1.402-1.754c0.598-0.773,0.843-1.104,0.843-1.54V34.48
			c0-0.582-0.115-0.812-1.034-0.812c-0.36,0-0.812,0.092-1.08,0.177l-0.084-0.383c0.268-0.093,0.766-0.192,1.21-0.192
			c1.188,0,1.433,0.438,1.433,1.195v0.115c0,0.552-0.207,0.843-0.935,1.815c-0.482,0.644-0.667,0.85-1.188,1.501h2.16v0.398h-2.728
			V37.896z"/>
	</g>
	<g>
		<path fill="#87888A" d="M239.57,34.089l1.295-0.743h0.398v4.948h-0.444v-4.42l-1.034,0.582L239.57,34.089z"/>
	</g>
	<g>
		<path fill="#87888A" d="M244.178,35.958h1.777v0.375h-1.777V35.958z"/>
	</g>
	<g>
		<path fill="#87888A" d="M248.633,37.834c0.359,0.085,0.758,0.139,1.103,0.139c0.773,0,1.111-0.153,1.111-0.759v-0.49
			c0-0.49-0.314-0.72-0.866-0.72h-1.026v-0.398h0.98c0.567,0,0.819-0.269,0.819-0.697v-0.544c0-0.513-0.252-0.697-0.919-0.697
			c-0.345,0-0.789,0.054-1.11,0.115l-0.062-0.383c0.314-0.069,0.773-0.131,1.157-0.131c0.987,0,1.378,0.368,1.378,1.065v0.536
			c0,0.475-0.138,0.743-0.612,0.927c0.421,0.092,0.705,0.375,0.705,0.896v0.551c0,0.812-0.521,1.126-1.57,1.126
			c-0.322,0-0.774-0.046-1.157-0.152L248.633,37.834z"/>
	</g>
	<g>
		<path fill="#87888A" d="M255.583,37.061c0,0.767-0.405,1.31-1.531,1.31c-1.127,0-1.532-0.543-1.532-1.31v-2.481
			c0-0.767,0.405-1.311,1.532-1.311c1.126,0,1.531,0.544,1.531,1.311V37.061z M252.964,37.031c0,0.628,0.253,0.942,1.088,0.942
			c0.834,0,1.087-0.314,1.087-0.942V34.61c0-0.628-0.253-0.942-1.087-0.942c-0.835,0-1.088,0.314-1.088,0.942V37.031z"/>
	</g>
</g>
<g>
	<rect x="4.003" y="47.988" fill="none" width="63.893" height="7.587"/>
</g>
<g enable-background="new    ">
	<g>
		<path fill="#87888A" d="M5.03,51.901c0,0.796,0.353,1.08,1.279,1.08c0.329,0,0.789-0.038,1.134-0.1l0.054,0.391
			c-0.383,0.076-0.858,0.114-1.226,0.114c-1.233,0-1.693-0.528-1.693-1.478V49.61c0-0.949,0.459-1.478,1.693-1.478
			c0.367,0,0.842,0.038,1.226,0.114l-0.054,0.391c-0.345-0.061-0.805-0.1-1.134-0.1c-0.927,0-1.279,0.284-1.279,1.08V51.901z"/>
	</g>
	<g>
		<path fill="#87888A" d="M10.97,53.31h-0.383l-0.03-0.291c-0.36,0.222-0.774,0.367-1.264,0.367c-0.659,0-0.965-0.375-0.965-1.041
			c0-0.789,0.36-1.034,1.095-1.034h1.103v-0.728c0-0.514-0.268-0.682-0.881-0.682c-0.368,0-0.758,0.053-1.103,0.122l-0.069-0.375
			c0.299-0.085,0.766-0.146,1.149-0.146c0.965,0,1.348,0.383,1.348,1.08V53.31z M10.526,51.709H9.438
			c-0.513,0-0.666,0.153-0.666,0.644c0,0.437,0.092,0.636,0.613,0.636c0.368,0,0.804-0.146,1.141-0.384V51.709z"/>
	</g>
	<g>
		<path fill="#87888A" d="M13.823,49.94c-0.391,0.168-0.819,0.452-1.18,0.689v2.681h-0.444v-3.73h0.398l0.023,0.567
			c0.398-0.261,0.797-0.514,1.149-0.644L13.823,49.94z"/>
	</g>
	<g>
		<path fill="#87888A" d="M14.591,48.874v-0.819h0.444v0.819H14.591z M14.591,53.31v-3.73h0.444v3.73H14.591z"/>
	</g>
	<g>
		<path fill="#87888A" d="M17.596,53.386c-1.049,0-1.448-0.59-1.448-1.355v-1.172c0-0.766,0.398-1.355,1.448-1.355
			s1.448,0.59,1.448,1.355v1.172C19.043,52.796,18.645,53.386,17.596,53.386z M18.599,50.843c0-0.628-0.306-0.941-1.003-0.941
			c-0.697,0-1.003,0.313-1.003,0.941v1.203c0,0.628,0.307,0.942,1.003,0.942c0.697,0,1.003-0.314,1.003-0.942V50.843z"/>
	</g>
	<g>
		<path fill="#87888A" d="M22.08,53.241c-0.214,0.085-0.513,0.146-0.781,0.146c-0.59,0-0.843-0.214-0.843-0.804v-2.62h-0.72v-0.383
			h0.72v-0.881l0.444-0.062v0.942h1.142l-0.046,0.383h-1.095v2.574c0,0.329,0.046,0.467,0.429,0.467
			c0.207,0,0.444-0.038,0.666-0.107L22.08,53.241z"/>
	</g>
	<g>
		<path fill="#87888A" d="M23.002,48.874v-0.819h0.444v0.819H23.002z M23.002,53.31v-3.73h0.444v3.73H23.002z"/>
	</g>
	<g>
		<path fill="#87888A" d="M27.493,52.238c0,0.682-0.307,1.148-1.149,1.148c-0.391,0-0.72-0.038-1.149-0.122v1.555L24.75,54.88
			v-5.301h0.406l0.023,0.353c0.375-0.283,0.843-0.429,1.256-0.429c0.728,0,1.057,0.359,1.057,1.034V52.238z M25.194,52.858
			c0.406,0.085,0.805,0.131,1.165,0.131c0.49,0,0.689-0.245,0.689-0.751v-1.7c0-0.43-0.138-0.636-0.644-0.636
			c-0.459,0-0.858,0.191-1.21,0.475V52.858z"/>
	</g>
	<g>
		<path fill="#87888A" d="M29.924,53.386c-1.049,0-1.448-0.59-1.448-1.355v-1.172c0-0.766,0.398-1.355,1.448-1.355
			s1.448,0.59,1.448,1.355v1.172C31.372,52.796,30.974,53.386,29.924,53.386z M30.928,50.843c0-0.628-0.306-0.941-1.003-0.941
			c-0.697,0-1.003,0.313-1.003,0.941v1.203c0,0.628,0.307,0.942,1.003,0.942c0.697,0,1.003-0.314,1.003-0.942V50.843z"/>
	</g>
</g>
<g>
	<rect x="4.003" y="60.767" fill="none" width="63.893" height="10.607"/>
</g>
<g enable-background="new    ">
	<g>
		<path fill="#87888A" d="M5.122,61.431v4.657H4.693v-5.102h0.659l2.42,4.665v-4.665h0.429v5.102H7.543L5.122,61.431z"/>
	</g>
	<g>
		<path fill="#87888A" d="M11.285,62.282c0,0.475-0.245,0.835-0.888,0.835c-0.644,0-0.889-0.36-0.889-0.835v-0.697
			c0-0.468,0.245-0.827,0.889-0.827c0.643,0,0.865,0.359,0.888,0.827V62.282z M10.964,61.576c0-0.345-0.169-0.528-0.567-0.528
			c-0.383,0-0.559,0.184-0.559,0.528v0.713c0,0.352,0.176,0.536,0.559,0.536c0.398,0,0.567-0.185,0.567-0.536V61.576z"/>
	</g>
	<g>
		<path fill="#87888A" d="M14.124,63.43c0-0.682,0.307-1.148,1.149-1.148c0.391,0,0.72,0.038,1.149,0.122v-1.57l0.444-0.062v5.316
			H16.46l-0.023-0.353c-0.375,0.283-0.843,0.429-1.256,0.429c-0.728,0-1.057-0.359-1.057-1.033V63.43z M16.422,62.81
			c-0.406-0.084-0.804-0.13-1.164-0.13c-0.49,0-0.689,0.245-0.689,0.75v1.701c0,0.429,0.138,0.636,0.644,0.636
			c0.459,0,0.858-0.192,1.21-0.476V62.81z"/>
	</g>
	<g>
		<path fill="#87888A" d="M19.397,65.774c0.383,0,0.812-0.076,1.18-0.176l0.077,0.36c-0.345,0.122-0.835,0.206-1.287,0.206
			c-1.05,0-1.387-0.543-1.387-1.355v-1.172c0-0.766,0.345-1.355,1.394-1.355c1.05,0,1.356,0.59,1.356,1.355v0.72h-2.306v0.468
			C18.425,65.491,18.655,65.774,19.397,65.774z M18.425,63.958h1.869v-0.337c0-0.628-0.222-0.957-0.919-0.957
			c-0.697,0-0.95,0.329-0.95,0.957V63.958z"/>
	</g>
	<g>
		<path fill="#87888A" d="M23.906,64.679c0,0.796,0.353,1.08,1.279,1.08c0.329,0,0.789-0.038,1.134-0.1l0.054,0.391
			c-0.383,0.076-0.858,0.114-1.226,0.114c-1.233,0-1.693-0.528-1.693-1.478v-2.299c0-0.949,0.459-1.478,1.693-1.478
			c0.367,0,0.842,0.038,1.226,0.114l-0.054,0.391c-0.345-0.061-0.805-0.1-1.134-0.1c-0.927,0-1.279,0.284-1.279,1.08V64.679z"/>
	</g>
	<g>
		<path fill="#87888A" d="M27.449,61.653v-0.819h0.444v0.819H27.449z M27.449,66.088v-3.73h0.444v3.73H27.449z"/>
	</g>
	<g>
		<path fill="#87888A" d="M31.12,66.019c-0.214,0.085-0.513,0.146-0.781,0.146c-0.59,0-0.843-0.214-0.843-0.804v-2.62h-0.72v-0.383
			h0.72v-0.881l0.444-0.062v0.942h1.142l-0.046,0.383H29.94v2.574c0,0.329,0.046,0.467,0.429,0.467c0.207,0,0.444-0.038,0.666-0.107
			L31.12,66.019z"/>
	</g>
	<g>
		<path fill="#87888A" d="M33.282,66.164c-1.049,0-1.448-0.59-1.448-1.355v-1.172c0-0.766,0.398-1.355,1.448-1.355
			s1.448,0.59,1.448,1.355v1.172C34.73,65.574,34.331,66.164,33.282,66.164z M34.286,63.621c0-0.628-0.306-0.941-1.003-0.941
			c-0.697,0-1.003,0.313-1.003,0.941v1.203c0,0.628,0.307,0.942,1.003,0.942c0.697,0,1.003-0.314,1.003-0.942V63.621z"/>
	</g>
	<g>
		<path fill="#87888A" d="M38.587,65.016c0,0.682-0.307,1.148-1.149,1.148c-0.391,0-0.72-0.038-1.149-0.122v1.555l-0.444,0.062
			v-5.301h0.406l0.023,0.353c0.375-0.283,0.843-0.429,1.256-0.429c0.728,0,1.057,0.359,1.057,1.034V65.016z M36.288,65.636
			c0.406,0.085,0.804,0.131,1.165,0.131c0.49,0,0.689-0.245,0.689-0.751v-1.7c0-0.43-0.138-0.636-0.644-0.636
			c-0.459,0-0.858,0.191-1.21,0.475V65.636z"/>
	</g>
	<g>
		<path fill="#87888A" d="M40.987,65.774c0.383,0,0.812-0.076,1.18-0.176l0.077,0.36c-0.345,0.122-0.835,0.206-1.287,0.206
			c-1.05,0-1.387-0.543-1.387-1.355v-1.172c0-0.766,0.345-1.355,1.394-1.355c1.05,0,1.356,0.59,1.356,1.355v0.72h-2.306v0.468
			C40.015,65.491,40.245,65.774,40.987,65.774z M40.015,63.958h1.869v-0.337c0-0.628-0.222-0.957-0.919-0.957
			c-0.697,0-0.95,0.329-0.95,0.957V63.958z"/>
	</g>
	<g>
		<path fill="#87888A" d="M45.717,66.088v-3.018c0-0.276-0.146-0.376-0.406-0.376c-0.307,0-0.965,0.184-1.433,0.429v2.965h-0.444
			v-3.73h0.391l0.031,0.337c0.398-0.191,1.065-0.413,1.517-0.413c0.583,0,0.789,0.329,0.789,0.842v2.965H45.717z"/>
	</g>
	<g>
		<path fill="#87888A" d="M47.429,61.653v-0.819h0.444v0.819H47.429z M47.429,66.088v-3.73h0.444v3.73H47.429z"/>
	</g>
	<g>
		<path fill="#87888A" d="M51.667,66.088h-0.383l-0.031-0.291c-0.36,0.222-0.774,0.367-1.264,0.367
			c-0.659,0-0.965-0.375-0.965-1.041c0-0.789,0.36-1.034,1.095-1.034h1.103v-0.728c0-0.514-0.268-0.682-0.881-0.682
			c-0.368,0-0.758,0.053-1.103,0.122l-0.069-0.375c0.299-0.085,0.766-0.146,1.149-0.146c0.965,0,1.348,0.383,1.348,1.08V66.088z
			 M51.223,64.488h-1.088c-0.513,0-0.666,0.153-0.666,0.644c0,0.437,0.092,0.636,0.613,0.636c0.368,0,0.804-0.146,1.141-0.384
			V64.488z"/>
	</g>
	<g>
		<path fill="#87888A" d="M53.876,66.164c-0.375,0-0.819-0.076-1.095-0.191l0.077-0.359c0.322,0.1,0.712,0.153,0.988,0.153
			c0.689,0,0.827-0.131,0.827-0.605c0-0.536-0.015-0.59-0.866-0.789c-0.935-0.222-1.011-0.452-1.011-1.134
			c0-0.62,0.299-0.957,1.218-0.957c0.345,0,0.766,0.046,1.057,0.13l-0.046,0.375c-0.299-0.061-0.735-0.106-1.042-0.106
			c-0.651,0-0.743,0.168-0.743,0.574c0,0.513,0.031,0.566,0.72,0.743c1.095,0.275,1.157,0.451,1.157,1.148
			C55.117,65.82,54.872,66.164,53.876,66.164z"/>
	</g>
</g>
<g>
	<rect x="0.489" y="13.147" fill="#C6C7C8" width="306.673" height="0.958"/>
</g>
<g>
	<rect x="0.489" y="27.523" fill="#C6C7C8" width="306.673" height="0.958"/>
</g>
<g>
	<rect x="0.489" y="42.858" fill="#C6C7C8" width="306.673" height="0.959"/>
</g>
<g>
	<rect x="0.489" y="57.871" fill="#C6C7C8" width="306.673" height="0.959"/>
</g>
<g>
	<rect x="67.417" y="13.626" fill="#C6C7C8" width="0.958" height="57.479"/>
</g>
<g>
	<rect x="107.031" y="13.626" fill="#C6C7C8" width="0.958" height="57.479"/>
</g>
<g>
	<rect x="161.309" y="13.626" fill="#C6C7C8" width="0.959" height="57.479"/>
</g>
<g>
	<rect x="192.617" y="13.626" fill="#C6C7C8" width="0.959" height="57.479"/>
</g>
<g>
	<rect x="222.009" y="13.626" fill="#C6C7C8" width="0.959" height="57.479"/>
</g>
</svg>
