<?xml version="1.0" encoding="utf-8"?>
<!-- Generator: Adobe Illustrator 17.0.0, SVG Export Plug-In . SVG Version: 6.00 Build 0)  -->
<!DOCTYPE svg PUBLIC "-//W3C//DTD SVG 1.1//EN" "http://www.w3.org/Graphics/SVG/1.1/DTD/svg11.dtd">
<svg version="1.1" id="Capa_1" xmlns="http://www.w3.org/2000/svg" xmlns:xlink="http://www.w3.org/1999/xlink" x="0px" y="0px"
	 width="307.59px" height="75.663px" viewBox="0 0 307.59 75.663" enable-background="new 0 0 307.59 75.663" xml:space="preserve">
<g>
	<rect x="0.516" y="0.506" fill="#FFFFFF" width="306.687" height="74.68"/>
	<path fill="#C6C7C8" d="M307.683,75.665H0.037V0.027h307.646V75.665z M0.995,74.707h305.729V0.985H0.995V74.707z"/>
</g>
<g>
	<rect x="4.03" y="21.132" fill="none" width="72.359" height="10.363"/>
</g>
<g enable-background="new    ">
	<g>
		<path fill="#87888A" d="M4.72,26.454v-5.102h1.915c0.689,0,1.096,0.329,1.096,1.004v0.612c0,0.406-0.169,0.674-0.582,0.827
			c0.398,0.054,0.742,0.383,0.742,0.95v0.666c0,0.705-0.513,1.042-1.172,1.042H4.72z M7.278,22.295c0-0.353-0.199-0.544-0.636-0.544
			H5.172v1.892h1.317c0.56,0,0.789-0.291,0.789-0.696V22.295z M7.44,24.762c0-0.43-0.253-0.721-0.843-0.721H5.172v2.015h1.555
			c0.482,0,0.713-0.237,0.713-0.644V24.762z"/>
	</g>
	<g>
		<path fill="#87888A" d="M11.84,25.113H9.466L8.99,26.454H8.546l1.777-5.102h0.666l1.777,5.102h-0.444L11.84,25.113z M9.604,24.723
			h2.099l-1.05-3.109L9.604,24.723z"/>
	</g>
	<g>
		<path fill="#87888A" d="M14.181,21.353v5.056c0,0.636-0.046,0.674-0.919,1.524l-0.299-0.322c0.75-0.735,0.766-0.766,0.766-1.156
			v-5.102H14.181z"/>
	</g>
	<g>
		<path fill="#87888A" d="M17.192,26.53c-1.31,0-1.784-0.643-1.784-1.517v-2.221c0-0.874,0.475-1.517,1.784-1.517
			s1.785,0.643,1.785,1.517v2.221C18.978,25.888,18.502,26.53,17.192,26.53z M18.525,24.999v-2.191c0-0.728-0.353-1.126-1.333-1.126
			s-1.333,0.398-1.333,1.126v2.191c0,0.728,0.353,1.126,1.333,1.126S18.525,25.727,18.525,24.999z"/>
	</g>
</g>
<g>
	<rect x="4.03" y="6.436" fill="none" width="72.359" height="10.363"/>
</g>
<g enable-background="new    ">
	<g>
		<path fill="#87888A" d="M5.057,10.342c0,0.751,0.253,1.088,1.211,1.088c0.313,0,0.758-0.038,1.072-0.115V9.507h0.452v2.114
			c-0.476,0.138-1.058,0.214-1.556,0.214c-1.24,0-1.631-0.536-1.631-1.485V8.066c0-0.957,0.451-1.485,1.692-1.485
			c0.437,0,1.019,0.054,1.401,0.138L7.653,7.109C7.225,7.04,6.742,6.986,6.306,6.986c-0.95,0-1.249,0.307-1.249,1.088V10.342z"/>
	</g>
	<g>
		<path fill="#87888A" d="M11.005,9.798h-0.1H9.55v1.961H9.098V6.657h1.808c1.026,0,1.402,0.468,1.402,1.18v0.781
			c0,0.56-0.23,0.973-0.827,1.118l1.363,2.022H12.33L11.005,9.798z M10.913,7.063H9.55v2.328h1.363c0.644,0,0.942-0.214,0.942-0.773
			V7.837C11.856,7.277,11.557,7.063,10.913,7.063z"/>
	</g>
	<g>
		<path fill="#87888A" d="M17.237,6.657v3.654c0,0.865-0.521,1.523-1.762,1.523c-1.241,0-1.763-0.658-1.763-1.523V6.657h0.452v3.654
			c0,0.712,0.452,1.118,1.311,1.118c0.857,0,1.31-0.406,1.31-1.118V6.657H17.237z"/>
	</g>
	<g>
		<path fill="#87888A" d="M18.582,6.657h1.731c1.026,0,1.401,0.468,1.401,1.18v0.797c0,0.712-0.375,1.18-1.401,1.18h-1.279v1.945
			h-0.452V6.657z M20.321,7.063h-1.287v2.344h1.287c0.644,0,0.941-0.215,0.941-0.773V7.837C21.263,7.277,20.965,7.063,20.321,7.063z
			"/>
	</g>
	<g>
		<path fill="#87888A" d="M24.423,11.835c-1.31,0-1.784-0.643-1.784-1.517V8.098c0-0.874,0.475-1.517,1.784-1.517
			s1.785,0.643,1.785,1.517v2.221C26.208,11.192,25.732,11.835,24.423,11.835z M25.756,10.304V8.112
			c0-0.728-0.353-1.126-1.333-1.126S23.09,7.385,23.09,8.112v2.191c0,0.728,0.353,1.126,1.333,1.126S25.756,11.031,25.756,10.304z"
			/>
	</g>
	<g>
		<path fill="#87888A" d="M31.07,9.798h-0.1h-1.356v1.961h-0.451V6.657h1.808c1.026,0,1.401,0.468,1.401,1.18v0.781
			c0,0.56-0.229,0.973-0.827,1.118l1.363,2.022h-0.513L31.07,9.798z M30.979,7.063h-1.364v2.328h1.364
			c0.644,0,0.941-0.214,0.941-0.773V7.837C31.92,7.277,31.622,7.063,30.979,7.063z"/>
	</g>
	<g>
		<path fill="#87888A" d="M34.398,11.759h-0.452V6.657h0.452V11.759z"/>
	</g>
	<g>
		<path fill="#87888A" d="M35.817,6.657h2.873v0.406H36.27v1.892h2.252v0.406H36.27v1.991h2.428v0.406h-2.88V6.657z"/>
	</g>
	<g>
		<path fill="#87888A" d="M41.199,11.835c-0.444,0-1.004-0.076-1.44-0.245l0.084-0.367c0.46,0.138,0.927,0.207,1.371,0.207
			c0.874,0,1.111-0.261,1.111-0.912c0-0.789-0.008-0.873-1.142-1.134c-1.233-0.283-1.371-0.505-1.371-1.531
			c0-0.835,0.307-1.271,1.586-1.271c0.444,0,0.973,0.076,1.317,0.176L42.662,7.14c-0.376-0.084-0.851-0.153-1.249-0.153
			c-1.011,0-1.148,0.245-1.148,0.881c0,0.827,0.022,0.866,1.095,1.134c1.341,0.337,1.417,0.528,1.417,1.494
			C42.776,11.33,42.493,11.835,41.199,11.835z"/>
	</g>
	<g>
		<path fill="#87888A" d="M44.382,10.342c0,0.751,0.253,1.088,1.21,1.088c0.314,0,0.759-0.038,1.072-0.115V9.507h0.452v2.114
			c-0.475,0.138-1.057,0.214-1.555,0.214c-1.241,0-1.632-0.536-1.632-1.485V8.066c0-0.957,0.452-1.485,1.692-1.485
			c0.438,0,1.02,0.054,1.402,0.138l-0.046,0.391C46.55,7.04,46.066,6.986,45.63,6.986c-0.949,0-1.248,0.307-1.248,1.088V10.342z"/>
	</g>
	<g>
		<path fill="#87888A" d="M50.093,11.835c-1.311,0-1.785-0.643-1.785-1.517V8.098c0-0.874,0.475-1.517,1.785-1.517
			c1.31,0,1.784,0.643,1.784,1.517v2.221C51.877,11.192,51.402,11.835,50.093,11.835z M51.425,10.304V8.112
			c0-0.728-0.352-1.126-1.332-1.126S48.76,7.385,48.76,8.112v2.191c0,0.728,0.353,1.126,1.333,1.126S51.425,11.031,51.425,10.304z"
			/>
	</g>
</g>
<g>
	<rect x="77.507" y="6.436" fill="none" width="72.336" height="10.363"/>
</g>
<g enable-background="new    ">
	<g>
		<path fill="#87888A" d="M104.873,11.835c-0.444,0-1.003-0.076-1.44-0.245l0.084-0.367c0.459,0.138,0.927,0.207,1.371,0.207
			c0.874,0,1.111-0.261,1.111-0.912c0-0.789-0.008-0.873-1.142-1.134c-1.233-0.283-1.371-0.505-1.371-1.531
			c0-0.835,0.307-1.271,1.586-1.271c0.444,0,0.973,0.076,1.317,0.176l-0.054,0.383c-0.375-0.084-0.85-0.153-1.249-0.153
			c-1.011,0-1.149,0.245-1.149,0.881c0,0.827,0.023,0.866,1.095,1.134c1.341,0.337,1.417,0.528,1.417,1.494
			C106.45,11.33,106.167,11.835,104.873,11.835z"/>
	</g>
	<g>
		<path fill="#87888A" d="M108.055,10.35c0,0.796,0.353,1.08,1.279,1.08c0.329,0,0.789-0.038,1.134-0.1l0.054,0.391
			c-0.383,0.076-0.858,0.114-1.226,0.114c-1.233,0-1.693-0.528-1.693-1.478V8.059c0-0.949,0.459-1.478,1.693-1.478
			c0.367,0,0.842,0.038,1.226,0.114l-0.054,0.391c-0.345-0.061-0.805-0.1-1.134-0.1c-0.927,0-1.279,0.284-1.279,1.08V10.35z"/>
	</g>
	<g>
		<path fill="#87888A" d="M113.168,11.835c-1.31,0-1.785-0.643-1.785-1.517V8.098c0-0.874,0.475-1.517,1.785-1.517
			c1.31,0,1.785,0.643,1.785,1.517v2.221C114.953,11.192,114.478,11.835,113.168,11.835z M114.501,10.304V8.112
			c0-0.728-0.352-1.126-1.333-1.126s-1.333,0.398-1.333,1.126v2.191c0,0.728,0.353,1.126,1.333,1.126S114.501,11.031,114.501,10.304
			z"/>
	</g>
	<g>
		<path fill="#87888A" d="M118.128,9.798h-0.1h-1.356v1.961h-0.452V6.657h1.808c1.026,0,1.402,0.468,1.402,1.18v0.781
			c0,0.56-0.23,0.973-0.827,1.118l1.363,2.022h-0.513L118.128,9.798z M118.037,7.063h-1.364v2.328h1.364
			c0.644,0,0.942-0.214,0.942-0.773V7.837C118.979,7.277,118.68,7.063,118.037,7.063z"/>
	</g>
	<g>
		<path fill="#87888A" d="M120.967,6.657h2.873v0.406h-2.421v1.892h2.252v0.406h-2.252v1.991h2.428v0.406h-2.88V6.657z"/>
	</g>
</g>
<g>
	<rect x="150.412" y="6.436" fill="none" width="76.235" height="10.363"/>
</g>
<g enable-background="new    ">
	<g>
		<path fill="#87888A" d="M161.601,11.835c-0.444,0-1.003-0.076-1.44-0.245l0.084-0.367c0.46,0.138,0.928,0.207,1.371,0.207
			c0.874,0,1.111-0.261,1.111-0.912c0-0.789-0.008-0.873-1.142-1.134c-1.233-0.283-1.371-0.505-1.371-1.531
			c0-0.835,0.307-1.271,1.586-1.271c0.444,0,0.973,0.076,1.317,0.176l-0.054,0.383c-0.376-0.084-0.851-0.153-1.249-0.153
			c-1.011,0-1.148,0.245-1.148,0.881c0,0.827,0.023,0.866,1.096,1.134c1.34,0.337,1.416,0.528,1.416,1.494
			C163.178,11.33,162.895,11.835,161.601,11.835z"/>
	</g>
	<g>
		<path fill="#87888A" d="M166.116,11.835c-1.31,0-1.784-0.643-1.784-1.517V8.098c0-0.874,0.475-1.517,1.784-1.517
			s1.784,0.643,1.784,1.517v2.221C167.9,11.192,167.426,11.835,166.116,11.835z M167.449,10.304V8.112
			c0-0.728-0.353-1.126-1.333-1.126s-1.333,0.398-1.333,1.126v2.191c0,0.728,0.353,1.126,1.333,1.126S167.449,11.031,167.449,10.304
			z"/>
	</g>
	<g>
		<path fill="#87888A" d="M169.17,11.759V6.657h1.914c0.689,0,1.096,0.329,1.096,1.004v0.612c0,0.406-0.168,0.674-0.582,0.827
			c0.398,0.054,0.743,0.383,0.743,0.95v0.666c0,0.705-0.514,1.042-1.173,1.042H169.17z M171.728,7.6
			c0-0.353-0.198-0.544-0.636-0.544h-1.471v1.892h1.318c0.559,0,0.788-0.291,0.788-0.696V7.6z M171.889,10.066
			c0-0.43-0.253-0.721-0.843-0.721h-1.425v2.015h1.555c0.482,0,0.713-0.237,0.713-0.644V10.066z"/>
	</g>
	<g>
		<path fill="#87888A" d="M175.362,9.798h-0.1h-1.356v1.961h-0.451V6.657h1.808c1.026,0,1.401,0.468,1.401,1.18v0.781
			c0,0.56-0.229,0.973-0.826,1.118l1.363,2.022h-0.514L175.362,9.798z M175.271,7.063h-1.364v2.328h1.364
			c0.644,0,0.942-0.214,0.942-0.773V7.837C176.213,7.277,175.914,7.063,175.271,7.063z"/>
	</g>
	<g>
		<path fill="#87888A" d="M178.201,6.657h2.873v0.406h-2.422v1.892h2.253v0.406h-2.253v1.991h2.429v0.406h-2.88V6.657z"/>
	</g>
	<g>
		<path fill="#87888A" d="M185.505,6.657h0.444l-1.801,5.102h-0.612l-1.8-5.102h0.444l1.662,4.695L185.505,6.657z"/>
	</g>
	<g>
		<path fill="#87888A" d="M187.286,11.759h-0.452V6.657h0.452V11.759z"/>
	</g>
	<g>
		<path fill="#87888A" d="M190.391,6.657c1.24,0,1.593,0.644,1.593,1.509v2.084c0,0.865-0.353,1.509-1.593,1.509h-1.686V6.657
			H190.391z M189.156,11.353h1.242c0.857,0,1.133-0.353,1.133-1.08V8.144c0-0.728-0.275-1.08-1.133-1.08h-1.242V11.353z"/>
	</g>
	<g>
		<path fill="#87888A" d="M195.963,10.418h-2.374l-0.476,1.341h-0.443l1.777-5.102h0.666l1.777,5.102h-0.445L195.963,10.418z
			 M193.727,10.027h2.099l-1.05-3.109L193.727,10.027z"/>
	</g>
	<g>
		<path fill="#87888A" d="M202.411,10.418h-2.374l-0.476,1.341h-0.444l1.777-5.102h0.666l1.777,5.102h-0.444L202.411,10.418z
			 M200.174,10.027h2.1l-1.05-3.109L200.174,10.027z"/>
	</g>
	<g>
		<path fill="#87888A" d="M204.729,7.102v4.657H204.3V6.657h0.659l2.42,4.665V6.657h0.43v5.102h-0.659L204.729,7.102z
			 M205.732,5.945c-0.169,0-0.283,0.084-0.414,0.214l-0.199-0.222c0.139-0.207,0.383-0.376,0.629-0.376
			c0.145,0,0.244,0.046,0.413,0.123c0.207,0.092,0.313,0.138,0.437,0.138c0.131,0,0.245-0.054,0.367-0.191l0.223,0.199
			c-0.131,0.215-0.345,0.375-0.59,0.375c-0.131,0-0.237-0.03-0.437-0.122C205.992,6.006,205.878,5.945,205.732,5.945z"/>
	</g>
	<g>
		<path fill="#87888A" d="M210.861,11.835c-1.311,0-1.785-0.643-1.785-1.517V8.098c0-0.874,0.475-1.517,1.785-1.517
			c1.31,0,1.785,0.643,1.785,1.517v2.221C212.647,11.192,212.171,11.835,210.861,11.835z M212.193,10.304V8.112
			c0-0.728-0.352-1.126-1.332-1.126s-1.333,0.398-1.333,1.126v2.191c0,0.728,0.353,1.126,1.333,1.126S212.193,11.031,212.193,10.304
			z"/>
	</g>
	<g>
		<path fill="#87888A" d="M215.24,11.835c-0.445,0-1.004-0.076-1.44-0.245l0.084-0.367c0.46,0.138,0.927,0.207,1.371,0.207
			c0.874,0,1.11-0.261,1.11-0.912c0-0.789-0.008-0.873-1.141-1.134c-1.233-0.283-1.371-0.505-1.371-1.531
			c0-0.835,0.307-1.271,1.586-1.271c0.443,0,0.973,0.076,1.316,0.176l-0.053,0.383c-0.376-0.084-0.851-0.153-1.249-0.153
			c-1.011,0-1.149,0.245-1.149,0.881c0,0.827,0.023,0.866,1.096,1.134c1.341,0.337,1.417,0.528,1.417,1.494
			C216.817,11.33,216.534,11.835,215.24,11.835z"/>
	</g>
</g>
<g>
	<rect x="236.831" y="6.436" fill="none" width="69.794" height="10.363"/>
</g>
<g enable-background="new    ">
	<g>
		<path fill="#87888A" d="M245.591,6.657h2.873v0.406h-2.421v1.892h2.252v0.406h-2.252v1.991h2.428v0.406h-2.88V6.657z"/>
	</g>
	<g>
		<path fill="#87888A" d="M252.895,6.657h0.444l-1.8,5.102h-0.613l-1.8-5.102h0.444l1.662,4.695L252.895,6.657z"/>
	</g>
	<g>
		<path fill="#87888A" d="M255.764,11.835c-1.31,0-1.784-0.643-1.784-1.517V8.098c0-0.874,0.475-1.517,1.784-1.517
			s1.785,0.643,1.785,1.517v2.221C257.549,11.192,257.073,11.835,255.764,11.835z M257.097,10.304V8.112
			c0-0.728-0.353-1.126-1.333-1.126s-1.333,0.398-1.333,1.126v2.191c0,0.728,0.353,1.126,1.333,1.126S257.097,11.031,257.097,10.304
			z"/>
	</g>
	<g>
		<path fill="#87888A" d="M259.269,11.353h2.299v0.406h-2.75V6.657h0.451V11.353z"/>
	</g>
	<g>
		<path fill="#87888A" d="M265.86,6.657v3.654c0,0.865-0.521,1.523-1.762,1.523c-1.241,0-1.763-0.658-1.763-1.523V6.657h0.452v3.654
			c0,0.712,0.452,1.118,1.311,1.118c0.857,0,1.31-0.406,1.31-1.118V6.657H265.86z"/>
	</g>
	<g>
		<path fill="#87888A" d="M267.542,10.35c0,0.796,0.353,1.08,1.279,1.08c0.329,0,0.789-0.038,1.134-0.1l0.053,0.391
			c-0.383,0.076-0.857,0.114-1.226,0.114c-1.232,0-1.692-0.528-1.692-1.478V8.059c0-0.949,0.46-1.478,1.692-1.478
			c0.368,0,0.843,0.038,1.226,0.114l-0.053,0.391c-0.345-0.061-0.805-0.1-1.134-0.1c-0.927,0-1.279,0.284-1.279,1.08V10.35z"/>
	</g>
	<g>
		<path fill="#87888A" d="M271.613,11.759h-0.452V6.657h0.452V11.759z"/>
	</g>
	<g>
		<path fill="#87888A" d="M274.701,11.835c-1.31,0-1.784-0.643-1.784-1.517V8.098c0-0.874,0.475-1.517,1.784-1.517
			s1.785,0.643,1.785,1.517v2.221C276.486,11.192,276.011,11.835,274.701,11.835z M276.034,10.304V8.112
			c0-0.728-0.353-1.126-1.333-1.126s-1.333,0.398-1.333,1.126v2.191c0,0.728,0.353,1.126,1.333,1.126S276.034,11.031,276.034,10.304
			z M274.41,5.96c0.307-0.184,0.613-0.375,0.935-0.612l0.222,0.337c-0.291,0.207-0.628,0.421-0.949,0.59L274.41,5.96z"/>
	</g>
	<g>
		<path fill="#87888A" d="M278.184,7.102v4.657h-0.429V6.657h0.658l2.421,4.665V6.657h0.429v5.102h-0.658L278.184,7.102z"/>
	</g>
	<g>
		<path fill="#87888A" d="M284.784,11.353h2.299v0.406h-2.75V6.657h0.451V11.353z"/>
	</g>
	<g>
		<path fill="#87888A" d="M292.311,7.109l-1.486,3.99h-0.697l-1.485-3.99l-0.107,4.649h-0.452l0.153-5.102h0.658l1.586,4.167
			l1.578-4.167h0.658l0.153,5.102h-0.451L292.311,7.109z"/>
	</g>
	<g>
		<path fill="#87888A" d="M297.104,10.418h-2.374l-0.476,1.341h-0.444l1.777-5.102h0.666l1.777,5.102h-0.444L297.104,10.418z
			 M294.867,10.027h2.099l-1.05-3.109L294.867,10.027z"/>
	</g>
</g>
<g>
	<rect x="77.507" y="35.338" fill="none" width="72.759" height="10.363"/>
</g>
<g enable-background="new    ">
	<g>
		<path fill="#87888A" d="M105.224,39.426c0,0.767-0.405,1.31-1.532,1.31c-1.126,0-1.531-0.543-1.531-1.31v-2.482
			c0-0.767,0.405-1.311,1.531-1.311c1.127,0,1.532,0.544,1.532,1.311V39.426z M102.605,39.396c0,0.628,0.253,0.942,1.087,0.942
			c0.835,0,1.088-0.314,1.088-0.942v-2.421c0-0.628-0.253-0.942-1.088-0.942c-0.834,0-1.087,0.314-1.087,0.942V39.396z"/>
	</g>
	<g>
		<path fill="#87888A" d="M106.515,40h0.475v0.659h-0.475V40z"/>
	</g>
	<g>
		<path fill="#87888A" d="M108.37,35.711h2.528v0.398h-2.084v1.784c0.322,0.008,0.475,0.008,0.881,0.016
			c0.927,0.016,1.241,0.483,1.241,1.172v0.422c0,0.789-0.36,1.232-1.509,1.232c-0.398,0-0.874-0.038-1.249-0.168l0.077-0.368
			c0.375,0.1,0.804,0.139,1.172,0.139c0.812,0,1.064-0.223,1.064-0.866v-0.329c0-0.59-0.184-0.82-0.881-0.835
			c-0.422-0.008-0.865-0.008-1.241-0.016V35.711z"/>
	</g>
	<g>
		<path fill="#87888A" d="M113.661,38.323h1.776v0.375h-1.776V38.323z"/>
	</g>
	<g>
		<path fill="#87888A" d="M117.701,36.454l1.295-0.743h0.398v4.949h-0.444v-4.42l-1.034,0.582L117.701,36.454z"/>
	</g>
	<g>
		<path fill="#87888A" d="M120.814,40h0.475v0.659h-0.475V40z"/>
	</g>
	<g>
		<path fill="#87888A" d="M125.656,39.426c0,0.767-0.405,1.31-1.532,1.31c-1.126,0-1.531-0.543-1.531-1.31v-2.482
			c0-0.767,0.405-1.311,1.531-1.311c1.127,0,1.532,0.544,1.532,1.311V39.426z M123.037,39.396c0,0.628,0.253,0.942,1.087,0.942
			c0.835,0,1.088-0.314,1.088-0.942v-2.421c0-0.628-0.253-0.942-1.088-0.942c-0.834,0-1.087,0.314-1.087,0.942V39.396z"/>
	</g>
</g>
<g>
	<rect x="150.412" y="35.338" fill="none" width="76.336" height="10.363"/>
</g>
<g enable-background="new    ">
	<g>
		<path fill="#87888A" d="M184.37,40.2c0.36,0.085,0.759,0.139,1.104,0.139c0.773,0,1.11-0.153,1.11-0.759v-0.49
			c0-0.49-0.314-0.72-0.865-0.72h-1.026v-0.399h0.98c0.566,0,0.819-0.269,0.819-0.697v-0.544c0-0.513-0.253-0.697-0.919-0.697
			c-0.345,0-0.789,0.054-1.111,0.115l-0.061-0.383c0.313-0.069,0.773-0.131,1.156-0.131c0.988,0,1.379,0.368,1.379,1.065v0.536
			c0,0.475-0.138,0.743-0.613,0.927c0.422,0.092,0.705,0.375,0.705,0.897v0.551c0,0.812-0.521,1.126-1.57,1.126
			c-0.321,0-0.773-0.046-1.156-0.152L184.37,40.2z"/>
	</g>
	<g>
		<path fill="#87888A" d="M188.28,40h0.475v0.659h-0.475V40z"/>
	</g>
	<g>
		<path fill="#87888A" d="M190.136,35.711h2.528v0.398h-2.084v1.784c0.322,0.008,0.475,0.008,0.881,0.016
			c0.927,0.016,1.241,0.483,1.241,1.172v0.422c0,0.789-0.36,1.232-1.509,1.232c-0.398,0-0.874-0.038-1.249-0.168l0.077-0.368
			c0.375,0.1,0.804,0.139,1.172,0.139c0.812,0,1.064-0.223,1.064-0.866v-0.329c0-0.59-0.184-0.82-0.881-0.835
			c-0.422-0.008-0.865-0.008-1.241-0.016V35.711z"/>
	</g>
</g>
<g>
	<rect x="237.334" y="35.338" fill="none" width="50.635" height="10.363"/>
</g>
<g enable-background="new    ">
	<g>
		<path fill="#87888A" d="M258.457,40.2c0.36,0.085,0.759,0.139,1.104,0.139c0.773,0,1.11-0.153,1.11-0.759v-0.49
			c0-0.49-0.314-0.72-0.865-0.72h-1.026v-0.399h0.98c0.566,0,0.819-0.269,0.819-0.697v-0.544c0-0.513-0.253-0.697-0.919-0.697
			c-0.345,0-0.789,0.054-1.111,0.115l-0.061-0.383c0.313-0.069,0.773-0.131,1.156-0.131c0.988,0,1.379,0.368,1.379,1.065v0.536
			c0,0.475-0.138,0.743-0.613,0.927c0.422,0.092,0.705,0.375,0.705,0.897v0.551c0,0.812-0.521,1.126-1.57,1.126
			c-0.321,0-0.773-0.046-1.156-0.152L258.457,40.2z"/>
	</g>
	<g>
		<path fill="#87888A" d="M262.367,40h0.475v0.659h-0.475V40z"/>
	</g>
	<g>
		<path fill="#87888A" d="M264.062,40.2c0.36,0.085,0.759,0.139,1.104,0.139c0.773,0,1.11-0.153,1.11-0.759v-0.49
			c0-0.49-0.314-0.72-0.865-0.72h-1.026v-0.399h0.98c0.566,0,0.819-0.269,0.819-0.697v-0.544c0-0.513-0.253-0.697-0.919-0.697
			c-0.345,0-0.789,0.054-1.111,0.115l-0.061-0.383c0.313-0.069,0.773-0.131,1.156-0.131c0.988,0,1.379,0.368,1.379,1.065v0.536
			c0,0.475-0.138,0.743-0.613,0.927c0.422,0.092,0.705,0.375,0.705,0.897v0.551c0,0.812-0.521,1.126-1.57,1.126
			c-0.321,0-0.773-0.046-1.156-0.152L264.062,40.2z"/>
	</g>
</g>
<g>
	<rect x="77.507" y="21.132" fill="none" width="72.759" height="8.226"/>
</g>
<g enable-background="new    ">
	<g>
		<path fill="#87888A" d="M115.418,25.221c0,0.767-0.406,1.31-1.532,1.31c-1.126,0-1.532-0.543-1.532-1.31v-2.481
			c0-0.767,0.406-1.311,1.532-1.311c1.126,0,1.532,0.544,1.532,1.311V25.221z M112.798,25.19c0,0.628,0.253,0.942,1.087,0.942
			c0.835,0,1.088-0.314,1.088-0.942V22.77c0-0.628-0.253-0.942-1.088-0.942c-0.834,0-1.087,0.314-1.087,0.942V25.19z"/>
	</g>
</g>
<g>
	<rect x="150.412" y="21.132" fill="none" width="76.336" height="8.226"/>
</g>
<g enable-background="new    ">
	<g>
		<path fill="#87888A" d="M184.815,21.506h2.528v0.398h-2.084v1.784c0.322,0.008,0.475,0.008,0.881,0.016
			c0.927,0.016,1.241,0.482,1.241,1.172v0.422c0,0.789-0.36,1.232-1.509,1.232c-0.398,0-0.874-0.038-1.249-0.168l0.077-0.368
			c0.375,0.1,0.804,0.139,1.172,0.139c0.812,0,1.064-0.223,1.064-0.866v-0.329c0-0.59-0.184-0.819-0.881-0.835
			c-0.422-0.008-0.865-0.008-1.241-0.016V21.506z"/>
	</g>
	<g>
		<path fill="#87888A" d="M188.611,25.795h0.475v0.659h-0.475V25.795z"/>
	</g>
	<g>
		<path fill="#87888A" d="M190.007,21.506h2.864v0.375l-2.145,4.573h-0.452l2.145-4.55h-2.412V21.506z"/>
	</g>
</g>
<g>
	<rect x="237.334" y="21.132" fill="none" width="50.635" height="8.226"/>
</g>
<g enable-background="new    ">
	<g>
		<path fill="#87888A" d="M260.568,24.064c-0.245,0.1-0.743,0.199-1.096,0.199c-1.019,0-1.317-0.43-1.317-1.195v-0.421
			c0-0.767,0.383-1.219,1.409-1.219c1.05,0,1.448,0.43,1.448,1.219v2.16c0,1.226-0.384,1.723-1.869,1.723
			c-0.207,0-0.613-0.038-0.873-0.114l0.053-0.376c0.199,0.047,0.514,0.093,0.743,0.093c1.317,0,1.502-0.322,1.502-1.333V24.064z
			 M260.568,23.636v-1.004c0-0.628-0.384-0.805-1.004-0.805c-0.72,0-0.965,0.223-0.965,0.805v0.46c0,0.536,0.168,0.773,0.889,0.773
			C259.856,23.865,260.292,23.75,260.568,23.636z"/>
	</g>
	<g>
		<path fill="#87888A" d="M262.165,25.795h0.475v0.659h-0.475V25.795z"/>
	</g>
	<g>
		<path fill="#87888A" d="M266.02,25.121v1.333h-0.444v-1.333h-2.397v-0.475l2.244-3.141h0.598v3.232h0.758v0.383H266.02z
			 M265.575,24.738v-2.772l-1.969,2.772H265.575z"/>
	</g>
</g>
<g>
	<rect x="77.507" y="48.633" fill="none" width="72.759" height="10.363"/>
</g>
<g enable-background="new    ">
	<g>
		<path fill="#87888A" d="M101.915,49.751l1.294-0.743h0.398v4.948h-0.444v-4.42l-1.034,0.582L101.915,49.751z"/>
	</g>
	<g>
		<path fill="#87888A" d="M105.027,53.297h0.475v0.659h-0.475V53.297z"/>
	</g>
	<g>
		<path fill="#87888A" d="M106.883,49.008h2.527v0.398h-2.083v1.784c0.321,0.008,0.475,0.008,0.881,0.016
			c0.927,0.016,1.24,0.482,1.24,1.172V52.8c0,0.789-0.359,1.232-1.509,1.232c-0.398,0-0.873-0.038-1.248-0.168l0.076-0.368
			c0.375,0.1,0.805,0.139,1.172,0.139c0.812,0,1.064-0.223,1.064-0.866V52.44c0-0.59-0.184-0.819-0.881-0.835
			c-0.421-0.008-0.865-0.008-1.24-0.016V49.008z"/>
	</g>
	<g>
		<path fill="#87888A" d="M112.173,51.621h1.777v0.375h-1.777V51.621z"/>
	</g>
	<g>
		<path fill="#87888A" d="M116.543,53.558c0.659-0.819,0.843-1.026,1.401-1.754c0.598-0.773,0.843-1.104,0.843-1.54v-0.122
			c0-0.582-0.114-0.812-1.034-0.812c-0.359,0-0.812,0.092-1.08,0.177l-0.084-0.383c0.269-0.093,0.766-0.192,1.21-0.192
			c1.188,0,1.433,0.438,1.433,1.195v0.115c0,0.552-0.207,0.843-0.935,1.815c-0.482,0.644-0.666,0.85-1.188,1.501h2.16v0.398h-2.727
			V53.558z"/>
	</g>
	<g>
		<path fill="#87888A" d="M120.537,53.297h0.475v0.659h-0.475V53.297z"/>
	</g>
	<g>
		<path fill="#87888A" d="M125.38,52.723c0,0.767-0.405,1.31-1.532,1.31c-1.126,0-1.531-0.543-1.531-1.31v-2.481
			c0-0.767,0.405-1.311,1.531-1.311c1.127,0,1.532,0.544,1.532,1.311V52.723z M122.761,52.693c0,0.628,0.253,0.942,1.087,0.942
			c0.835,0,1.088-0.314,1.088-0.942v-2.421c0-0.628-0.253-0.942-1.088-0.942c-0.834,0-1.087,0.314-1.087,0.942V52.693z"/>
	</g>
</g>
<g>
	<rect x="150.412" y="48.633" fill="none" width="76.336" height="10.363"/>
</g>
<g enable-background="new    ">
	<g>
		<path fill="#87888A" d="M184.632,49.751l1.294-0.743h0.398v4.948h-0.444v-4.42l-1.034,0.582L184.632,49.751z"/>
	</g>
	<g>
		<path fill="#87888A" d="M187.744,53.297h0.475v0.659h-0.475V53.297z"/>
	</g>
	<g>
		<path fill="#87888A" d="M189.315,53.558c0.659-0.819,0.843-1.026,1.402-1.754c0.598-0.773,0.843-1.104,0.843-1.54v-0.122
			c0-0.582-0.115-0.812-1.034-0.812c-0.36,0-0.812,0.092-1.08,0.177l-0.084-0.383c0.268-0.093,0.766-0.192,1.21-0.192
			c1.188,0,1.433,0.438,1.433,1.195v0.115c0,0.552-0.207,0.843-0.935,1.815c-0.482,0.644-0.667,0.85-1.188,1.501h2.16v0.398h-2.728
			V53.558z"/>
	</g>
</g>
<g>
	<rect x="237.334" y="48.633" fill="none" width="50.635" height="10.363"/>
</g>
<g enable-background="new    ">
	<g>
		<path fill="#87888A" d="M259.31,49.751l1.294-0.743h0.398v4.948h-0.444v-4.42l-1.034,0.582L259.31,49.751z"/>
	</g>
	<g>
		<path fill="#87888A" d="M262.422,53.297h0.475v0.659h-0.475V53.297z"/>
	</g>
	<g>
		<path fill="#87888A" d="M263.281,49.751l1.294-0.743h0.398v4.948h-0.444v-4.42l-1.034,0.582L263.281,49.751z"/>
	</g>
</g>
<g>
	<rect x="77.507" y="63.17" fill="none" width="72.759" height="10.363"/>
</g>
<g enable-background="new    ">
	<g>
		<path fill="#87888A" d="M110.94,66.784l-3.063,1.784l-0.191-0.321l2.811-1.624l-2.796-1.616l0.191-0.321l3.049,1.776V66.784z"/>
	</g>
	<g>
		<path fill="#87888A" d="M111.732,68.093c0.659-0.819,0.843-1.026,1.401-1.754c0.598-0.773,0.843-1.104,0.843-1.54v-0.122
			c0-0.582-0.114-0.812-1.034-0.812c-0.359,0-0.812,0.092-1.08,0.177l-0.084-0.383c0.269-0.093,0.766-0.192,1.21-0.192
			c1.188,0,1.433,0.438,1.433,1.195v0.115c0,0.552-0.207,0.843-0.935,1.815c-0.482,0.644-0.666,0.85-1.188,1.501h2.16v0.398h-2.727
			V68.093z"/>
	</g>
	<g>
		<path fill="#87888A" d="M115.727,67.832h0.475v0.659h-0.475V67.832z"/>
	</g>
	<g>
		<path fill="#87888A" d="M117.582,63.543h2.528v0.398h-2.084v1.784c0.322,0.008,0.475,0.008,0.881,0.016
			c0.927,0.016,1.241,0.482,1.241,1.172v0.422c0,0.789-0.36,1.232-1.509,1.232c-0.398,0-0.874-0.038-1.249-0.168l0.077-0.368
			c0.375,0.1,0.804,0.139,1.172,0.139c0.812,0,1.064-0.223,1.064-0.866v-0.329c0-0.59-0.184-0.819-0.881-0.835
			c-0.422-0.008-0.865-0.008-1.241-0.016V63.543z"/>
	</g>
</g>
<g>
	<rect x="150.412" y="63.17" fill="none" width="76.336" height="10.363"/>
</g>
<g enable-background="new    ">
	<g>
		<path fill="#87888A" d="M187.12,67.258c0,0.767-0.405,1.31-1.532,1.31c-1.126,0-1.531-0.543-1.531-1.31v-2.481
			c0-0.767,0.405-1.311,1.531-1.311c1.127,0,1.532,0.544,1.532,1.311V67.258z M184.501,67.228c0,0.628,0.253,0.942,1.087,0.942
			c0.835,0,1.088-0.314,1.088-0.942v-2.421c0-0.628-0.253-0.942-1.088-0.942c-0.834,0-1.087,0.314-1.087,0.942V67.228z"/>
	</g>
	<g>
		<path fill="#87888A" d="M188.411,67.832h0.475v0.659h-0.475V67.832z"/>
	</g>
	<g>
		<path fill="#87888A" d="M192.266,67.159v1.333h-0.444v-1.333h-2.397v-0.475l2.244-3.141h0.598v3.232h0.759v0.383H192.266z
			 M191.821,66.776v-2.772l-1.969,2.772H191.821z"/>
	</g>
</g>
<g>
	<rect x="237.334" y="63.17" fill="none" width="50.635" height="10.363"/>
</g>
<g enable-background="new    ">
	<g>
		<path fill="#87888A" d="M261.406,67.258c0,0.767-0.405,1.31-1.532,1.31c-1.126,0-1.531-0.543-1.531-1.31v-2.481
			c0-0.767,0.405-1.311,1.531-1.311c1.127,0,1.532,0.544,1.532,1.311V67.258z M258.787,67.228c0,0.628,0.253,0.942,1.087,0.942
			c0.835,0,1.088-0.314,1.088-0.942v-2.421c0-0.628-0.253-0.942-1.088-0.942c-0.834,0-1.087,0.314-1.087,0.942V67.228z"/>
	</g>
	<g>
		<path fill="#87888A" d="M262.697,67.832h0.475v0.659h-0.475V67.832z"/>
	</g>
	<g>
		<path fill="#87888A" d="M264.27,68.093c0.659-0.819,0.843-1.026,1.401-1.754c0.598-0.773,0.843-1.104,0.843-1.54v-0.122
			c0-0.582-0.114-0.812-1.034-0.812c-0.359,0-0.812,0.092-1.08,0.177l-0.084-0.383c0.269-0.093,0.766-0.192,1.21-0.192
			c1.188,0,1.433,0.438,1.433,1.195v0.115c0,0.552-0.207,0.843-0.935,1.815c-0.482,0.644-0.666,0.85-1.188,1.501h2.16v0.398h-2.727
			V68.093z"/>
	</g>
</g>
<g>
	<rect x="4.03" y="35.338" fill="none" width="72.359" height="10.363"/>
</g>
<g enable-background="new    ">
	<g>
		<path fill="#87888A" d="M5.21,40.66H4.758v-5.102H5.21V40.66z"/>
	</g>
	<g>
		<path fill="#87888A" d="M7.058,36.002v4.658H6.629v-5.102h0.659l2.42,4.666v-4.666h0.43v5.102H9.479L7.058,36.002z"/>
	</g>
	<g>
		<path fill="#87888A" d="M12.593,35.964h-1.57v-0.406h3.593v0.406h-1.57v4.696h-0.452V35.964z"/>
	</g>
	<g>
		<path fill="#87888A" d="M15.5,35.558h2.872v0.406h-2.421v1.892h2.253v0.406h-2.253v1.992h2.429v0.406H15.5V35.558z"/>
	</g>
	<g>
		<path fill="#87888A" d="M21.517,38.699h-0.1h-1.355v1.961h-0.452v-5.102h1.808c1.026,0,1.402,0.468,1.402,1.18v0.781
			c0,0.56-0.23,0.973-0.827,1.119l1.363,2.022h-0.514L21.517,38.699z M21.425,35.964h-1.363v2.328h1.363
			c0.644,0,0.942-0.214,0.942-0.773v-0.781C22.367,36.178,22.068,35.964,21.425,35.964z"/>
	</g>
	<g>
		<path fill="#87888A" d="M28.545,36.01L27.06,40h-0.697l-1.486-3.991l-0.107,4.65h-0.452l0.153-5.102h0.659l1.586,4.167
			l1.577-4.167h0.659l0.153,5.102h-0.452L28.545,36.01z"/>
	</g>
	<g>
		<path fill="#87888A" d="M30.451,35.558h2.872v0.406h-2.421v1.892h2.253v0.406h-2.253v1.992h2.429v0.406h-2.88V35.558z"/>
	</g>
	<g>
		<path fill="#87888A" d="M36.245,35.558c1.241,0,1.594,0.644,1.594,1.509v2.084c0,0.865-0.353,1.509-1.594,1.509h-1.685v-5.102
			H36.245z M35.012,40.253h1.241c0.858,0,1.134-0.353,1.134-1.08v-2.129c0-0.728-0.275-1.08-1.134-1.08h-1.241V40.253z"/>
	</g>
	<g>
		<path fill="#87888A" d="M39.574,40.66h-0.452v-5.102h0.452V40.66z"/>
	</g>
	<g>
		<path fill="#87888A" d="M42.663,40.736c-1.311,0-1.785-0.643-1.785-1.517v-2.221c0-0.874,0.475-1.517,1.785-1.517
			c1.31,0,1.784,0.643,1.784,1.517v2.221C44.447,40.093,43.973,40.736,42.663,40.736z M43.995,39.205v-2.192
			c0-0.728-0.352-1.126-1.332-1.126s-1.333,0.398-1.333,1.126v2.192c0,0.728,0.353,1.126,1.333,1.126S43.995,39.932,43.995,39.205z"
			/>
	</g>
	<g>
		<path fill="#87888A" d="M46.79,36.454l1.294-0.743h0.398v4.949h-0.444v-4.42l-1.034,0.582L46.79,36.454z"/>
	</g>
</g>
<g>
	<rect x="4.03" y="48.633" fill="none" width="72.359" height="10.363"/>
</g>
<g enable-background="new    ">
	<g>
		<path fill="#87888A" d="M5.21,53.957H4.758v-5.102H5.21V53.957z"/>
	</g>
	<g>
		<path fill="#87888A" d="M7.058,49.299v4.657H6.629v-5.102h0.659l2.42,4.665v-4.665h0.43v5.102H9.479L7.058,49.299z"/>
	</g>
	<g>
		<path fill="#87888A" d="M12.593,49.261h-1.57v-0.406h3.593v0.406h-1.57v4.695h-0.452V49.261z"/>
	</g>
	<g>
		<path fill="#87888A" d="M15.5,48.855h2.872v0.406h-2.421v1.892h2.253v0.406h-2.253v1.991h2.429v0.406H15.5V48.855z"/>
	</g>
	<g>
		<path fill="#87888A" d="M21.517,51.996h-0.1h-1.355v1.961h-0.452v-5.102h1.808c1.026,0,1.402,0.468,1.402,1.18v0.781
			c0,0.56-0.23,0.973-0.827,1.118l1.363,2.022h-0.514L21.517,51.996z M21.425,49.261h-1.363v2.328h1.363
			c0.644,0,0.942-0.214,0.942-0.773v-0.781C22.367,49.475,22.068,49.261,21.425,49.261z"/>
	</g>
	<g>
		<path fill="#87888A" d="M28.545,49.307l-1.485,3.99h-0.697l-1.486-3.99l-0.107,4.649h-0.452l0.153-5.102h0.659l1.586,4.167
			l1.577-4.167h0.659l0.153,5.102h-0.452L28.545,49.307z"/>
	</g>
	<g>
		<path fill="#87888A" d="M30.451,48.855h2.872v0.406h-2.421v1.892h2.253v0.406h-2.253v1.991h2.429v0.406h-2.88V48.855z"/>
	</g>
	<g>
		<path fill="#87888A" d="M36.245,48.855c1.241,0,1.594,0.644,1.594,1.509v2.084c0,0.865-0.353,1.509-1.594,1.509h-1.685v-5.102
			H36.245z M35.012,53.55h1.241c0.858,0,1.134-0.353,1.134-1.08v-2.129c0-0.728-0.275-1.08-1.134-1.08h-1.241V53.55z"/>
	</g>
	<g>
		<path fill="#87888A" d="M39.574,53.957h-0.452v-5.102h0.452V53.957z"/>
	</g>
	<g>
		<path fill="#87888A" d="M42.663,54.033c-1.311,0-1.785-0.643-1.785-1.517v-2.221c0-0.874,0.475-1.517,1.785-1.517
			c1.31,0,1.784,0.643,1.784,1.517v2.221C44.447,53.39,43.973,54.033,42.663,54.033z M43.995,52.501V50.31
			c0-0.728-0.352-1.126-1.332-1.126s-1.333,0.398-1.333,1.126v2.191c0,0.728,0.353,1.126,1.333,1.126S43.995,53.229,43.995,52.501z"
			/>
	</g>
	<g>
		<path fill="#87888A" d="M47.119,53.558c0.659-0.819,0.843-1.026,1.401-1.754c0.598-0.773,0.843-1.104,0.843-1.54v-0.122
			c0-0.582-0.114-0.812-1.034-0.812c-0.359,0-0.812,0.092-1.08,0.177l-0.084-0.383c0.269-0.093,0.766-0.192,1.21-0.192
			c1.188,0,1.433,0.438,1.433,1.195v0.115c0,0.552-0.207,0.843-0.935,1.815c-0.482,0.644-0.666,0.85-1.188,1.501h2.16v0.398h-2.727
			V53.558z"/>
	</g>
</g>
<g>
	<rect x="4.03" y="63.17" fill="none" width="72.359" height="10.363"/>
</g>
<g enable-background="new    ">
	<g>
		<path fill="#87888A" d="M7.593,67.151H5.218l-0.475,1.341H4.299l1.777-5.102h0.666l1.777,5.102H8.075L7.593,67.151z M5.356,66.76
			h2.099l-1.049-3.109L5.356,66.76z"/>
	</g>
	<g>
		<path fill="#87888A" d="M9.933,68.085h2.299v0.406h-2.75V63.39h0.451V68.085z"/>
	</g>
	<g>
		<path fill="#87888A" d="M13.459,63.796h-1.57V63.39h3.593v0.406h-1.57v4.695h-0.452V63.796z"/>
	</g>
	<g>
		<path fill="#87888A" d="M17.867,68.568c-1.31,0-1.784-0.643-1.784-1.517v-2.221c0-0.874,0.475-1.517,1.784-1.517
			s1.785,0.643,1.785,1.517v2.221C19.652,67.925,19.177,68.568,17.867,68.568z M19.2,67.037v-2.191c0-0.728-0.353-1.126-1.333-1.126
			s-1.333,0.398-1.333,1.126v2.191c0,0.728,0.353,1.126,1.333,1.126S19.2,67.764,19.2,67.037z"/>
	</g>
</g>
<g>
	<rect x="0.516" y="16.32" fill="#C6C7C8" width="306.687" height="0.958"/>
</g>
<g>
	<rect x="0.516" y="31.015" fill="#C6C7C8" width="306.687" height="0.958"/>
</g>
<g>
	<rect x="0.516" y="44.781" fill="#C6C7C8" width="306.687" height="0.959"/>
</g>
<g>
	<rect x="0.516" y="57.517" fill="#C6C7C8" width="306.687" height="0.959"/>
</g>
<g>
	<rect x="77.028" y="0.506" fill="#C6C7C8" width="0.958" height="74.693"/>
</g>
<g>
	<rect x="149.356" y="0.506" fill="#C6C7C8" width="0.958" height="74.693"/>
</g>
<g>
	<rect x="226.269" y="0.506" fill="#C6C7C8" width="0.959" height="74.693"/>
</g>
</svg>
