<?xml version="1.0" encoding="utf-8"?>
<!-- Generator: Adobe Illustrator 17.0.0, SVG Export Plug-In . SVG Version: 6.00 Build 0)  -->
<!DOCTYPE svg PUBLIC "-//W3C//DTD SVG 1.1//EN" "http://www.w3.org/Graphics/SVG/1.1/DTD/svg11.dtd">
<svg version="1.1" id="Capa_1" xmlns="http://www.w3.org/2000/svg" xmlns:xlink="http://www.w3.org/1999/xlink" x="0px" y="0px"
	 width="129.124px" height="31.597px" viewBox="0 0 129.124 31.597" enable-background="new 0 0 129.124 31.597"
	 xml:space="preserve">
<path fill="#FFFFFF" d="M28.434,0.003H15.797v20.538h12.096c-1.69,5.965-7.174,10.328-13.676,10.328
	c-6.505,0-11.985-4.363-13.677-10.328h12.097V0.003H0v31.594h28.434V0.003z"/>
<polygon fill="#FFFFFF" points="41.188,21.76 38.285,21.76 38.285,30.497 37.03,30.497 37.03,21.673 33.981,21.673 33.981,20.87 
	41.188,20.87 "/>
<polygon fill="#FFFFFF" points="48,30.497 42.911,30.497 42.911,20.841 47.898,20.841 47.898,21.612 44.104,21.612 44.104,25.058 
	47.549,25.058 47.549,25.74 44.136,25.74 44.136,29.811 48,29.811 "/>
<path fill="#FFFFFF" d="M57.644,21.35l-0.336,1.107h-0.116c-2.642-2.538-6.727-0.874-6.61,3.195
	c0.117,5.093,4.726,5.093,6.828,3.327l-0.101,0.876c-3.764,2.202-8.17,0.117-8.17-4.203c0-2.64,1.984-4.96,5.179-4.96
	C55.426,20.693,56.752,20.811,57.644,21.35"/>
<path fill="#FFFFFF" d="M68.028,30.673h-0.26c-2.249-2.656-4.642-5.222-7.12-7.675v7.499h-0.789v-9.832h0.306
	c2.308,2.568,4.669,5.049,7.062,7.47v-7.266h0.802V30.673z"/>
<path fill="#FFFFFF" d="M80.474,23.567c0.963,2.656-0.205,5.821-2.961,6.814c-0.453,0.146-0.922,0.263-1.401,0.292l-1.56-0.059
	c-2.453-0.263-4.307-2.278-4.307-4.757c-0.056-2.509,1.532-4.596,3.954-5.134c0.686-0.146,1.403-0.191,2.087-0.117
	C78.137,20.841,79.772,21.804,80.474,23.567 M79.424,26.164c0.174-1.998-0.483-4.099-2.51-4.873
	c-0.396-0.131-0.832-0.218-1.256-0.249c-1.706,0-3.047,1.023-3.676,2.556c-0.628,2.057-0.48,4.389,1.167,5.879
	c0.947,0.729,2.028,0.905,3.194,0.729c1.312-0.308,2.333-1.3,2.788-2.554L79.424,26.164z"/>
<polygon fill="#FFFFFF" points="88.043,21.699 84.12,21.672 84.12,25.058 87.736,25.058 87.736,25.829 84.147,25.829 84.147,30.496 
	82.896,30.496 82.896,20.868 88.043,20.868 "/>
<path fill="#FFFFFF" d="M97.935,30.496h-1.401l-1.474-3.763h-3.618l-1.4,3.763H89.08l4.346-9.831h0.292L97.935,30.496z
	 M94.828,26.164l-1.591-3.528l-1.576,3.528H94.828z"/>
<path fill="#FFFFFF" d="M106.818,30.496h-1.59c-1.167-1.589-2.391-3.195-3.647-4.666h-0.655v4.666h-1.198V20.84h4.071
	c1.487,0.178,2.274,1.518,1.909,2.874c-0.377,1.196-1.575,1.852-2.799,2L106.818,30.496z M103.463,25.058
	c1.534-0.744,1.502-3.299-0.35-3.62h-2.159v3.881h1.706L103.463,25.058z"/>
<polygon fill="#FFFFFF" points="119.056,30.497 117.716,30.497 117.015,23.247 113.281,30.409 113.135,30.409 109.458,23.379 
	108.802,30.497 107.841,30.497 109.183,20.693 109.399,20.693 113.514,28.279 117.672,20.693 117.861,20.693 "/>
<path fill="#FFFFFF" d="M129.124,30.496h-1.402l-1.473-3.763h-3.618l-1.4,3.763h-0.965l4.35-9.831h0.292L129.124,30.496z
	 M126.016,26.164l-1.589-3.528l-1.578,3.528H126.016z"/>
</svg>
