<?xml version="1.0" encoding="utf-8"?>
<!-- Generator: Adobe Illustrator 17.0.0, SVG Export Plug-In . SVG Version: 6.00 Build 0)  -->
<!DOCTYPE svg PUBLIC "-//W3C//DTD SVG 1.1//EN" "http://www.w3.org/Graphics/SVG/1.1/DTD/svg11.dtd">
<svg version="1.1" id="Capa_1" xmlns="http://www.w3.org/2000/svg" xmlns:xlink="http://www.w3.org/1999/xlink" x="0px" y="0px"
	 width="199.402px" height="92.525px" viewBox="0 0 199.402 92.525" enable-background="new 0 0 199.402 92.525"
	 xml:space="preserve">
<g>
	<path fill="#FFFFFF" d="M19.469,87.17h-0.05c-0.642,1.488-1.642,2.128-3.26,2.128c-2.748,0-3.54-1.77-3.54-4.258
		c0-3.928,3.848-4.105,6.8-4.029c0.05-1.718,0.074-3.593-2.182-3.593c-1.41,0-2.155,0.948-2.027,2.31h-2.285
		c0.106-2.9,1.645-3.902,4.39-3.902c3.335,0,4.209,1.72,4.209,3.902v6.237c0,1.025,0.101,2.075,0.258,3.077h-2.312V87.17
		 M14.724,85.192c0,1.261,0.613,2.387,2.026,2.387c1.283,0,2.872-0.795,2.669-4.98C17.416,82.627,14.724,82.446,14.724,85.192"/>
	<polygon fill="#FFFFFF" points="31.4,78.008 25.679,87.324 31.58,87.324 31.58,89.042 23.396,89.042 23.396,87.066 29.042,77.856 
		29.042,77.802 23.676,77.802 23.676,76.084 31.4,76.084 	"/>
	<path fill="#FFFFFF" d="M39.584,87.17H39.53c-0.64,1.488-1.637,2.128-3.255,2.128c-2.744,0-3.54-1.77-3.54-4.258
		c0-3.928,3.849-4.105,6.795-4.029c0.054-1.718,0.081-3.593-2.177-3.593c-1.414,0-2.158,0.948-2.027,2.31h-2.285
		c0.104-2.9,1.645-3.902,4.39-3.902c3.336,0,4.206,1.72,4.206,3.902v6.237c0,1.025,0.104,2.075,0.257,3.077h-2.31V87.17
		 M34.836,85.192c0,1.261,0.617,2.387,2.031,2.387c1.279,0,2.872-0.795,2.663-4.98C37.532,82.627,34.836,82.446,34.836,85.192"/>
	<path fill="#FFFFFF" d="M50.286,80.242c0.05-2.132-0.999-2.695-1.8-2.695c-1.615,0-2.719,0.769-2.719,4.313
		c0,4.206,0.539,5.718,2.719,5.718c0.489,0,1.951-0.514,1.873-2.846h2.206c0.078,3.64-2.64,4.567-4.079,4.567
		c-2.744,0-4.927-0.823-4.927-6.541c0-3.799,0.438-6.933,4.927-6.933c2.594,0,4.109,1.516,3.978,4.417H50.286"/>
	<path fill="#FFFFFF" d="M54.108,70.517h2.36v2.259h-2.36V70.517z M56.338,89.041h-2.104V76.083h2.104V89.041z"/>
	<path fill="#FFFFFF" d="M59.574,76.084v-2.49l2.101-0.948v3.438h2.823v1.593h-2.823v7.929c0,0.819,0,1.871,1.924,1.871
		c0.155,0,0.491-0.052,0.952-0.104v1.614c-0.694,0.055-1.388,0.208-2.079,0.208c-2.002,0-2.897-0.823-2.897-2.308v-9.21h-2.133
		v-1.593H59.574"/>
	<path fill="#FFFFFF" d="M65.704,70.517h2.361v2.259h-2.361V70.517z M67.937,89.041h-2.104V76.083h2.104V89.041z"/>
	<path fill="#FFFFFF" d="M76.966,70.518h2.105v18.524h-2.105v-1.541h-0.05c-0.719,1.208-1.618,1.798-2.975,1.798
		c-2.079,0-4.186-0.821-4.186-6.518c0-3.231,0.104-6.955,4.288-6.955c1.229,0,2.128,0.538,2.847,1.568h0.075V70.518 M74.53,77.547
		c-2.259,0-2.566,1.796-2.566,5.261c0,1.948,0,4.771,2.644,4.771c2.358,0,2.358-2.924,2.358-5.541
		C76.966,80.319,76.864,77.547,74.53,77.547"/>
	<path fill="#FFFFFF" d="M81.047,70.517h2.361v2.259h-2.361V70.517z M83.28,89.041h-2.105V76.083h2.105V89.041z"/>
	<path fill="#FFFFFF" d="M92.926,89.042v-8.98c0-1.383-0.485-2.514-2.284-2.514c-2.308,0-2.643,2.054-2.643,3.822v7.673h-2.104
		V78.775c0-0.895-0.051-1.793-0.128-2.691h2.232v1.67h0.104c0.821-1.464,1.797-1.928,3.464-1.928c2.771,0,3.465,1.67,3.465,4.235
		v8.98H92.926"/>
	<path fill="#FFFFFF" d="M98.876,83.241c0,3.618,0.974,4.339,2.619,4.339c1.439,0,2.178-1.154,2.26-2.461h2.308
		c-0.027,2.871-1.796,4.18-4.518,4.18c-2.746,0-4.926-0.821-4.926-6.539c0-3.799,0.438-6.932,4.926-6.932
		c3.696,0,4.618,2.029,4.618,6.313v1.101H98.876 M103.932,81.653c0-3.774-1.052-4.235-2.591-4.235c-1.337,0-2.435,0.641-2.465,4.235
		H103.932z"/>
	<path fill="#FFFFFF" d="M112.009,79.834v-1.788c0-1.858,1.312-2.223,2.641-2.223c0.31,0,0.497,0.021,0.711,0.053v1.078
		c-1.582-0.107-1.858,0.566-1.858,1.316v1.564h1.858v1.135h-1.858v8.072h-1.493v-8.072h-1.425v-1.135H112.009"/>
	<path fill="#FFFFFF" d="M115.273,84.574c0-2.695,0.309-4.92,3.5-4.92s3.499,2.225,3.499,4.92c0,4.067-1.547,4.65-3.499,4.65
		C116.822,89.224,115.273,88.641,115.273,84.574 M120.704,83.939c0-2.516-0.781-3.063-1.932-3.063c-1.149,0-1.932,0.547-1.932,3.063
		c0,2.986,0.382,4.064,1.932,4.064C120.321,88.002,120.704,86.925,120.704,83.939"/>
	<path fill="#FFFFFF" d="M125.062,81.221h0.035c0.618-1.405,1.385-1.567,2.847-1.567v1.547c-0.13-0.016-0.271-0.031-0.401-0.054
		c-0.13-0.017-0.256-0.034-0.403-0.034c-1.658,0-2.077,1.26-2.077,2.496v5.433h-1.497v-9.207h1.497V81.221"/>
	<path fill="#FFFFFF" d="M131.495,75.876h1.677v1.606h-1.677V75.876z M133.082,89.041h-1.494v-9.207h1.494V89.041z"/>
	<path fill="#FFFFFF" d="M139.955,89.042v-6.381c0-0.986-0.346-1.785-1.62-1.785c-1.646,0-1.883,1.457-1.883,2.714v5.452h-1.49
		v-7.294c0-0.636-0.037-1.274-0.095-1.913h1.585v1.185h0.073c0.588-1.038,1.275-1.367,2.463-1.367c1.973,0,2.463,1.184,2.463,3.008
		v6.381H139.955"/>
	<path fill="#FFFFFF" d="M143.127,79.834h1.496v10.484c0,1.459-0.422,2.207-2.606,2.207v-1.279c0.639,0,1.11-0.088,1.11-0.855
		V79.834 M143.038,75.876h1.673v1.606h-1.673V75.876z"/>
	<path fill="#FFFFFF" d="M147.392,84.921c0,2.57,0.694,3.082,1.861,3.082c1.022,0,1.551-0.819,1.601-1.748h1.642
		c-0.015,2.039-1.275,2.97-3.205,2.97c-1.952,0-3.498-0.584-3.498-4.653c0-2.693,0.307-4.92,3.498-4.92
		c2.625,0,3.28,1.442,3.28,4.487v0.782H147.392 M150.985,83.793c0-2.681-0.747-3.012-1.843-3.012c-0.951,0-1.733,0.458-1.751,3.012
		H150.985z"/>
	<path fill="#FFFFFF" d="M158.403,82.788c0.038-1.515-0.712-1.912-1.277-1.912c-1.15,0-1.93,0.547-1.93,3.063
		c0,2.986,0.378,4.064,1.93,4.064c0.348,0,1.387-0.365,1.335-2.024h1.566c0.056,2.585-1.879,3.246-2.901,3.246
		c-1.949,0-3.5-0.584-3.5-4.653c0-2.693,0.312-4.92,3.5-4.92c1.843,0,2.92,1.076,2.828,3.136H158.403"/>
	<path fill="#FFFFFF" d="M161.598,79.834v-1.767l1.488-0.674v2.441h2.008v1.135h-2.008V86.6c0,0.583,0,1.329,1.367,1.329
		c0.114,0,0.348-0.033,0.678-0.073v1.15c-0.491,0.035-0.984,0.143-1.477,0.143c-1.422,0-2.057-0.584-2.057-1.637v-6.543h-1.517
		v-1.135H161.598"/>
	<path fill="#FFFFFF" d="M165.877,75.876h1.681v1.606h-1.681V75.876z M167.464,89.041h-1.495v-9.207h1.495V89.041z"/>
	<path fill="#FFFFFF" d="M168.979,84.574c0-2.695,0.309-4.92,3.498-4.92c3.191,0,3.499,2.225,3.499,4.92
		c0,4.067-1.549,4.65-3.499,4.65C170.527,89.224,168.979,88.641,168.979,84.574 M174.408,83.939c0-2.516-0.781-3.063-1.932-3.063
		c-1.149,0-1.934,0.547-1.934,3.063c0,2.986,0.387,4.064,1.934,4.064C174.029,88.002,174.408,86.925,174.408,83.939"/>
	<path fill="#FFFFFF" d="M182.429,89.042v-6.381c0-0.986-0.347-1.785-1.618-1.785c-1.643,0-1.878,1.457-1.878,2.714v5.452h-1.499
		v-7.294c0-0.636-0.032-1.274-0.088-1.913h1.587v1.185h0.071c0.584-1.038,1.275-1.367,2.458-1.367c1.97,0,2.462,1.184,2.462,3.008
		v6.381H182.429"/>
	<path fill="#FFFFFF" d="M10.608,59.879C7.722,66.046,0,66.088,0,66.088l0.08-27.873h6.926l-0.761,13.1
		c-0.147,2.325-0.779,6.763-0.779,6.763h0.109c0,0,8.401-22.585,9.629-25.583c1.645-4.035,9.626-3.997,9.626-3.997
		S13.549,53.588,10.608,59.879"/>
	<path fill="#FFD400" d="M48.864,7.111c0,0,0.065,0.874-4.337,3.512c-4.405,2.637-2.366,6.91-1.939,8.371
		c0,0,0.155-2.205,3.868-4.982C50.172,11.244,48.864,7.111,48.864,7.111"/>
	<path fill="#009BC9" d="M64.304-0.001c0,0,0.552,9.569-12.066,14.342c-12.619,4.767-8.08,11.645-6.864,15.099
		c0,0-0.404-5.566,10.24-10.837C66.258,13.325,64.304-0.001,64.304-0.001"/>
	<path fill="#FFFFFF" d="M35.299,60.339c0,0,3.821-18.308,4.373-20.646c0.552-2.332,6.601-2.907,6.601-2.907l-3.76,18.17
		l2.229-0.004C42.079,61.323,35.299,60.339,35.299,60.339"/>
	<path fill="#FFFFFF" d="M76.179,59.698c-2.996,0.479-4.058-1.143-4.058-1.143c-0.82,1.281-2.236,2.149-3.84,2.149
		c-3.521,0-5.023-2.196-4.093-6.585l2.353-11.116c0.93-4.389,3.358-6.584,6.879-6.584c1.416,0,2.461,0.685,2.851,1.876
		c0,0,1.052-4.858,1.467-6.908c0.478-2.373,6.555-2.695,6.555-2.695l-5.606,26.259h2.396C81.081,54.951,79.174,59.223,76.179,59.698
		 M75.178,43.46c0.221-1.052-0.291-1.646-1.022-1.646c-0.735,0-1.5,0.594-1.72,1.646l-2.16,10.206
		c-0.223,1.05,0.291,1.644,1.021,1.644c0.732,0,1.5-0.594,1.725-1.644L75.178,43.46z"/>
	<path fill="#FFFFFF" d="M111.375,59.728c-2.924,0.263-3.45-1.174-3.45-1.174c-0.866,1.282-2.604,2.151-4.293,2.151
		c-3.393,0-4.914-2.105-4.048-6.174c0.839-3.981,3.17-5.898,7.162-7.274c2.71-0.916,3.595-1.645,3.937-3.248l0.146-0.683
		c0.211-1.008-0.03-1.605-0.76-1.605s-1.271,0.597-1.479,1.605l-0.329,1.553h-5.673c0,0,0.632-2.834,0.794-3.272
		c1.171-3.302,3.812-5.188,7.766-5.188c4.479,0,6.284,2.286,5.37,6.584l-1.825,8.649c-0.279,1.313-0.7,3.308-0.7,3.308l2.485-0.011
		C116.477,54.949,114.297,59.464,111.375,59.728 M109.206,50.141c0,0-0.585,0.367-1.181,0.595c-1.547,0.594-2.146,1.282-2.496,2.93
		c-0.227,1.094,0.183,1.734,1.056,1.734c0.911,0,1.642-0.64,1.937-2.056L109.206,50.141z"/>
	<path fill="#FFFFFF" d="M180.042,59.728c-2.919,0.263-3.447-1.174-3.447-1.174c-0.868,1.282-2.605,2.151-4.296,2.151
		c-3.384,0-4.902-2.105-4.042-6.174c0.839-3.981,3.169-5.898,7.162-7.274c2.708-0.916,3.597-1.645,3.935-3.248l0.145-0.683
		c0.213-1.008-0.025-1.605-0.758-1.605c-0.732,0-1.269,0.597-1.483,1.605l-0.327,1.553h-5.672l0.398-1.876
		c0.879-4.163,3.681-6.584,8.157-6.584c4.482,0,6.286,2.286,5.379,6.584l-1.83,8.649c-0.277,1.313-0.698,3.308-0.698,3.308
		l2.482-0.011C185.147,54.949,182.968,59.464,180.042,59.728 M177.873,50.141c0,0-0.581,0.367-1.176,0.595
		c-1.543,0.594-2.148,1.282-2.5,2.93c-0.23,1.094,0.185,1.734,1.054,1.734c0.916,0,1.643-0.64,1.944-2.056L177.873,50.141z"/>
	<path fill="#FFFFFF" d="M141.555,60.339h-7.851l0.867-4.117l10.017-14.043h-6.678l1.141-5.394h13.082l-0.932,4.388l-9.911,13.769
		h7.408C148.698,54.942,146.409,60.339,141.555,60.339"/>
	<path fill="#FFFFFF" d="M195.606,35.167c2.064,0,3.797,1.634,3.797,3.768c0,2.178-1.732,3.812-3.797,3.812
		c-2.079,0-3.818-1.634-3.818-3.812C191.787,36.8,193.526,35.167,195.606,35.167 M195.606,42.187c1.75,0,3.105-1.398,3.105-3.252
		c0-1.81-1.355-3.21-3.105-3.21c-1.773,0-3.133,1.4-3.133,3.21C192.473,40.788,193.832,42.187,195.606,42.187 M194.125,36.737h1.709
		c1.053,0,1.552,0.415,1.552,1.269c0,0.799-0.505,1.131-1.167,1.202l1.265,1.955h-0.735l-1.206-1.902h-0.729v1.902h-0.688V36.737z
		 M194.813,38.703h0.72c0.606,0,1.162-0.03,1.162-0.73c0-0.586-0.507-0.677-0.97-0.677h-0.912V38.703z"/>
</g>
</svg>
